<svg width="54" height="54" viewBox="0 0 54 54" fill="none" xmlns="http://www.w3.org/2000/svg">
  <g clip-path="url(#clip0_2020_588)">
    <path d="M32.1596 43.1138H28.1183C27.5432 43.1138 27.0768 43.5801 27.0768 44.1553C27.0768 44.7306 27.5432 45.1968 28.1183 45.1968H32.1596C32.7834 45.1968 33.2908 45.7042 33.2908 46.3279C33.2908 46.9516 32.7835 47.459 32.1596 47.459H21.2808C19.6454 47.459 18.1076 46.738 17.0619 45.4808L14.4603 42.3537C13.0643 40.6757 11.0327 39.6929 8.85885 39.6307V33.4783H12.6936C14.5847 33.4783 16.3753 34.2016 17.7358 35.5149L23.3508 40.9348C23.7478 41.318 23.7663 41.9596 23.3921 42.365C23.0106 42.7781 22.3632 42.8051 21.9487 42.4252L17.5404 38.3843C17.1165 37.9956 16.4576 38.0242 16.069 38.4482C15.6803 38.8722 15.7089 39.5311 16.133 39.9197L20.5413 43.9607C21.1359 44.5056 21.8882 44.7748 22.6387 44.7748C23.4766 44.7748 24.312 44.4393 24.9227 43.7778C26.0587 42.5471 26.0025 40.5995 24.7975 39.4363L19.1825 34.0163C17.4316 32.3262 15.1272 31.3954 12.6936 31.3954H8.65657C8.26472 30.468 7.34572 29.8154 6.27724 29.8154H1.37475C0.799576 29.8154 0.333252 30.2817 0.333252 30.8569V38.4728C0.333252 39.048 0.799576 39.5143 1.37475 39.5143C1.94992 39.5143 2.41624 39.0481 2.41624 38.4728V31.8983H6.27735C6.55233 31.8983 6.77596 32.1221 6.77596 32.3969V40.7446C6.77596 41.0195 6.55233 41.2432 6.27735 41.2432H5.19565C4.62048 41.2432 4.15415 41.7095 4.15415 42.2847C4.15415 42.8599 4.62048 43.3262 5.19565 43.3262H6.27724C7.36009 43.3262 8.28868 42.6559 8.67146 41.7085C10.2951 41.7178 11.8199 42.4368 12.859 43.6859L15.4606 46.813C16.9034 48.5473 19.0248 49.542 21.2808 49.542H32.1596C33.9318 49.542 35.3737 48.1002 35.3737 46.3279C35.3737 44.5556 33.9318 43.1138 32.1596 43.1138Z" fill="white" />
    <path d="M52.6218 14.0754C52.0466 14.0754 51.5803 14.5416 51.5803 15.1169V22.0982H47.7192C47.4442 22.0982 47.2205 21.8745 47.2205 21.5996V13.2519C47.2205 12.9771 47.4442 12.7533 47.7192 12.7533H48.7244C49.2996 12.7533 49.7659 12.2871 49.7659 11.7118C49.7659 11.1367 49.2996 10.6703 48.7244 10.6703H47.7192C46.6363 10.6703 45.7077 11.3407 45.3249 12.288C43.7013 12.2788 42.1765 11.5598 41.1374 10.3107L38.5358 7.18368C37.0931 5.44932 34.9716 4.45459 32.7155 4.45459H21.8369C20.0647 4.45459 18.6228 5.89637 18.6228 7.66855C18.6228 9.44073 20.0647 10.8825 21.8369 10.8825H26.2853C26.8605 10.8825 27.3268 10.4163 27.3268 9.84101C27.3268 9.26574 26.8605 8.79952 26.2853 8.79952H21.8369C21.2132 8.79952 20.7057 8.29215 20.7057 7.66844C20.7057 7.04484 21.2131 6.53737 21.8369 6.53737H32.7156C34.3511 6.53737 35.8889 7.25837 36.9346 8.51558L39.5362 11.6426C40.9321 13.3206 42.9638 14.3033 45.1377 14.3656V20.518H41.3029C39.4118 20.518 37.6212 19.7947 36.2607 18.4815L30.6457 13.0615C30.2487 12.6783 30.2302 12.0368 30.6044 11.6313C30.9859 11.2181 31.6333 11.1912 32.0478 11.5711L36.4562 15.6121C36.8803 16.0007 37.5389 15.9722 37.9277 15.5481C38.3163 15.1241 38.2877 14.4653 37.8636 14.0767L33.4552 10.0358C32.1969 8.88243 30.2316 8.96461 29.0738 10.2187C27.9378 11.4495 27.994 13.397 29.199 14.5602L34.8141 19.9802C36.5649 21.6703 38.8693 22.601 41.3029 22.601H45.3399C45.7318 23.5285 46.6508 24.181 47.7193 24.181H52.6219C53.197 24.181 53.6634 23.7148 53.6634 23.1395V15.1167C53.6633 14.5416 53.1969 14.0754 52.6218 14.0754Z" fill="white" />
    <path d="M33.9601 39.8768C33.7232 39.3527 33.1077 39.1189 32.5839 39.3556C32.0565 39.5853 31.8152 40.199 32.0449 40.7263C32.2155 41.1182 32.5984 41.3522 33.0003 41.3522C33.1391 41.3522 33.2801 41.3242 33.4156 41.2653C33.4199 41.2634 33.4337 41.2573 33.4379 41.2554C33.9622 41.0186 34.1969 40.4011 33.9601 39.8768Z" fill="white" />
    <path d="M36.549 38.1234C36.2085 37.661 35.5541 37.5647 35.0911 37.9037C34.627 38.2434 34.5262 38.8952 34.866 39.3592C35.07 39.6378 35.3863 39.7855 35.7071 39.7855C35.9206 39.7855 36.1361 39.7201 36.3215 39.5844C36.3232 39.5833 36.333 39.576 36.3345 39.5748C36.7959 39.2332 36.8894 38.5857 36.549 38.1234Z" fill="white" />
    <path d="M31.0484 41.046C30.9298 40.4851 30.3791 40.126 29.8177 40.242C29.2569 40.3533 28.8902 40.8965 28.9977 41.459C29.0931 41.9579 29.5297 42.3051 30.0195 42.3051C30.0843 42.3051 30.1502 42.2989 30.2162 42.2863C30.2229 42.285 30.24 42.2815 30.2469 42.2801C30.8094 42.1608 31.1675 41.6086 31.0484 41.046Z" fill="white" />
    <path d="M38.7246 35.8582C38.2976 35.473 37.6392 35.5069 37.2538 35.934C37.2487 35.9397 37.2367 35.9533 37.2317 35.959C36.8559 36.3945 36.9045 37.0522 37.3399 37.4279C37.5367 37.5977 37.7788 37.6808 38.0197 37.6808C38.3089 37.6808 38.5965 37.561 38.8021 37.3273C39.1857 36.9001 39.1512 36.2429 38.7246 35.8582ZM38.143 36.7364L38.0272 36.6316L38.1526 36.7447L38.143 36.7364Z" fill="white" />
    <path d="M41.3755 30.214C40.8251 30.0471 40.2428 30.3611 40.0759 30.9116C39.9067 31.4613 40.2152 32.0441 40.765 32.2133C40.867 32.2447 40.9701 32.2596 41.0715 32.2596C41.5167 32.2596 41.9289 31.9719 42.0666 31.5242L42.071 31.5099C42.2378 30.9594 41.9259 30.3809 41.3755 30.214Z" fill="white" />
    <path d="M42.7096 24.8386C42.7073 24.8254 42.7048 24.8122 42.702 24.799C42.5844 24.2361 42.0328 23.876 41.4701 23.9934C40.9094 24.1102 40.5489 24.6585 40.6618 25.2191C40.7573 25.7161 41.1928 26.0639 41.6832 26.0639C41.7441 26.0639 41.806 26.0586 41.868 26.0474C42.4342 25.9461 42.8109 25.4048 42.7096 24.8386Z" fill="white" />
    <path d="M41.7543 27.0983C41.1832 27.0479 40.676 27.4713 40.6255 28.0442C40.6245 28.0543 40.6231 28.0748 40.6224 28.0849C40.5887 28.6591 41.0267 29.152 41.6009 29.1858C41.6217 29.187 41.6424 29.1877 41.663 29.1877C42.2052 29.1877 42.6609 28.7683 42.7008 28.2222C42.7483 27.6514 42.3257 27.1487 41.7543 27.0983Z" fill="white" />
    <path d="M40.3559 33.1775C39.8559 32.8941 39.2199 33.0697 38.9364 33.5702L38.9219 33.5962C38.6477 34.1018 38.8328 34.7385 39.3383 35.0128C39.4973 35.099 39.6685 35.14 39.8371 35.14C40.2047 35.14 40.5598 34.945 40.7478 34.5983L39.8424 34.0836L40.7485 34.5971C41.0321 34.0966 40.8564 33.4611 40.3559 33.1775Z" fill="white" />
    <path d="M21.4668 13.3429C21.2096 12.8283 20.5837 12.6197 20.0696 12.8771L20.0603 12.8817C19.5458 13.139 19.3419 13.7621 19.5992 14.2766C19.7814 14.641 20.1505 14.8508 20.5332 14.8508C20.6909 14.8508 20.8509 14.8152 21.001 14.7402C21.5155 14.483 21.724 13.8574 21.4668 13.3429Z" fill="white" />
    <path d="M24.4798 12.4745C24.3443 11.9157 23.7821 11.5722 23.2222 11.7078C23.2174 11.709 23.2026 11.7127 23.1978 11.714C22.6408 11.8575 22.3034 12.4259 22.4468 12.9828C22.568 13.4528 22.9895 13.7652 23.4529 13.7652C23.5387 13.7652 23.626 13.7544 23.7131 13.7321C24.272 13.5965 24.6153 13.0336 24.4798 12.4745Z" fill="white" />
    <path d="M18.713 14.8447C18.3528 14.3971 17.697 14.3268 17.2489 14.6862L17.8946 15.5033L17.2458 14.6886C16.7958 15.0469 16.7215 15.7021 17.0798 16.152C17.2856 16.4103 17.589 16.5448 17.8953 16.5448C18.1226 16.5448 18.3517 16.4707 18.5434 16.3181L18.5572 16.307C19.004 15.9461 19.0732 15.2923 18.713 14.8447Z" fill="white" />
    <path d="M13.1598 22.2549C12.6049 22.1037 12.0324 22.4307 11.8811 22.9856C11.8785 22.9951 11.8735 23.0148 11.8711 23.0244C11.7357 23.5832 12.079 24.1451 12.6377 24.2809C12.7202 24.3009 12.8027 24.3104 12.8839 24.3104C13.3512 24.3104 13.7757 23.9934 13.8941 23.5208C14.0369 22.97 13.7105 22.4051 13.1598 22.2549Z" fill="white" />
    <path d="M12.4963 25.3149C11.9206 25.2829 11.4296 25.7203 11.3963 26.2944C11.3954 26.3078 11.3949 26.3212 11.3945 26.3345C11.3776 26.9092 11.8298 27.388 12.4045 27.4052C12.4152 27.4055 12.4256 27.4057 12.4361 27.4057C12.9944 27.4057 13.4557 26.9627 13.4763 26.4019C13.5024 25.8333 13.0662 25.348 12.4963 25.3149Z" fill="white" />
    <path d="M14.4706 19.4088C13.9611 19.1415 13.3317 19.3378 13.0645 19.8472L13.0475 19.8807C12.7937 20.3966 13.0066 21.0197 13.5224 21.2737C13.6701 21.3465 13.8266 21.3809 13.9811 21.3809C14.3636 21.3809 14.7318 21.1693 14.9143 20.8047C15.1736 20.2971 14.9766 19.6743 14.4706 19.4088Z" fill="white" />
    <path d="M16.3514 16.903C15.9088 16.5356 15.2522 16.5966 14.8848 17.039C14.8798 17.0452 14.8684 17.0593 14.8634 17.0655C14.5063 17.5162 14.5827 18.1701 15.0332 18.5274C15.2244 18.6791 15.4525 18.7527 15.6792 18.7527C15.9847 18.7527 16.2876 18.6189 16.4933 18.3625C16.8541 17.9201 16.7916 17.2685 16.3514 16.903Z" fill="white" />
    <path d="M13.6733 29.2926C13.572 28.7264 13.0304 28.3496 12.4645 28.4511C11.8983 28.5525 11.5216 29.0936 11.6229 29.6598L11.6248 29.6701C11.715 30.1735 12.1522 30.5231 12.646 30.5231C12.7075 30.5231 12.7699 30.5177 12.8326 30.5065C13.3988 30.4051 13.7748 29.8588 13.6733 29.2926Z" fill="white" />
    <path d="M30.5742 21.3865C29.2186 21.3865 27.9625 21.9455 27.0675 22.8889C26.1723 21.9455 24.9164 21.3865 23.5607 21.3865C20.8939 21.3865 18.7244 23.556 18.7244 26.2228C18.7244 27.6618 19.359 29.0161 20.4654 29.9385C20.4721 29.9442 20.4789 29.9497 20.4858 29.9552L26.421 34.6541C26.6103 34.804 26.8388 34.8789 27.0674 34.8789C27.2969 34.8789 27.5265 34.8033 27.7163 34.6521L33.9029 29.7243C33.9332 29.7002 33.962 29.6744 33.9894 29.6471C34.9059 28.7331 35.4106 27.517 35.4106 26.2228C35.4106 23.556 33.241 21.3865 30.5742 21.3865ZM32.5562 28.1343L27.0656 32.5077L21.7899 28.331C21.1654 27.8056 20.8074 27.0381 20.8074 26.223C20.8073 24.7047 22.0425 23.4695 23.5607 23.4695C24.6785 23.4695 25.6773 24.137 26.1053 25.1701C26.2667 25.5591 26.6464 25.8129 27.0675 25.8129C27.4886 25.8129 27.8683 25.5592 28.0296 25.1701C28.4577 24.137 29.4565 23.4695 30.5742 23.4695C32.0925 23.4695 33.3277 24.7047 33.3277 26.2229C33.3277 26.9418 33.0541 27.6185 32.5562 28.1343Z" fill="white" />
    <path d="M1.37476 43.3225C1.94795 43.3225 2.41261 42.8579 2.41261 42.2847C2.41261 41.7115 1.94795 41.2468 1.37476 41.2468C0.801575 41.2468 0.336914 41.7115 0.336914 42.2847C0.336914 42.8579 0.801575 43.3225 1.37476 43.3225Z" fill="white" />
    <path d="M52.6216 12.7495C53.1948 12.7495 53.6594 12.2849 53.6594 11.7117C53.6594 11.1385 53.1948 10.6738 52.6216 10.6738C52.0484 10.6738 51.5837 11.1385 51.5837 11.7117C51.5837 12.2849 52.0484 12.7495 52.6216 12.7495Z" fill="white" />
  </g>
  <defs>
    <clipPath id="clip0_2020_588">
      <rect width="53.33" height="53.33" fill="white" transform="translate(0.333252 0.333252)" />
    </clipPath>
  </defs>
</svg>