<svg width="55" height="77" viewBox="0 0 55 77" fill="none" xmlns="http://www.w3.org/2000/svg">
  <path opacity="0.981" fill-rule="evenodd" clip-rule="evenodd" d="M50.9948 20.9446C50.9029 20.9446 50.8571 20.9911 50.8571 21.0843C50.7417 21.1321 50.6957 21.2252 50.7194 21.3639C48.5708 24.1342 45.8629 26.1607 42.5955 27.4434C41.071 27.9978 39.5564 28.5335 38.0516 29.0506C37.8314 29.0131 37.6479 29.0598 37.5008 29.1904C37.323 29.1572 37.1853 29.2038 37.0877 29.3301C37.0419 29.3301 36.9959 29.3301 36.95 29.3301C36.7723 29.297 36.6346 29.3435 36.5369 29.4699C35.3897 29.6562 34.2423 29.8425 33.0946 30.0289C36.0764 27.3548 37.1091 24.0471 36.1927 20.106C35.8063 18.9491 35.2786 17.8777 34.6092 16.8916C38.7347 16.7057 42.8655 16.4727 47.0017 16.1928C48.379 16.0919 49.7559 15.9753 51.1325 15.8434C49.0885 15.797 47.069 15.8669 45.0739 16.053C42.4129 16.1473 39.7508 16.1939 37.0877 16.1928C35.9852 16.216 34.8836 16.1928 33.7831 16.1229C33.4874 15.8103 33.1662 15.5307 32.8192 15.2843C30.0195 15.1911 27.2196 15.1911 24.4199 15.2843C23.9152 15.4936 23.4563 15.7731 23.043 16.1229C22.0802 16.1928 21.1164 16.216 20.1514 16.1928C15.0048 16.1493 9.86423 15.9862 4.72973 15.7036C10.0883 16.2853 15.4584 16.6812 20.8399 16.8916C18.2284 20.5356 18.1135 24.2626 20.4956 28.0723C20.9776 28.7477 21.5513 29.3301 22.2168 29.8193C22.5208 29.846 22.7962 29.9158 23.043 30.0289C21.5654 29.9079 20.0967 29.7214 18.6368 29.4699C18.4991 29.4699 18.3614 29.4699 18.2237 29.4699C18.2237 29.3767 18.1778 29.3301 18.086 29.3301C17.3093 29.1725 16.5289 29.0327 15.7452 28.9108C15.6981 28.7937 15.6064 28.747 15.4698 28.7711C15.378 28.7711 15.2863 28.7711 15.1944 28.7711C11.7572 27.6905 8.75083 25.8736 6.17553 23.3205C4.20513 20.9514 2.85123 18.2493 2.11353 15.2145C17.2596 15.0747 32.4059 15.0282 47.5524 15.0747C48.1259 11.1403 46.8867 7.94919 43.8347 5.50119C41.5943 4.26809 39.2076 3.84879 36.6746 4.24339C35.5959 4.36919 34.5402 4.60209 33.5077 4.94219C33.106 6.09579 32.3947 7.00419 31.3734 7.66749C31.2467 8.19339 31.0402 8.68249 30.7538 9.13489C30.0477 9.63779 29.2674 9.82409 28.413 9.69399C28.2869 9.64169 28.172 9.57179 28.0688 9.48429C28.0341 9.04169 28.0112 8.62239 27.9999 8.22649C27.5139 8.60319 27.0091 8.95259 26.4853 9.27469C25.2512 9.71579 24.0119 10.1351 22.7676 10.5325C22.1339 11.0967 21.652 11.7723 21.3218 12.559C21.2155 11.5918 21.5597 10.8231 22.3545 10.253C21.3561 10.2938 20.5299 10.7131 19.876 11.5108C19.7407 11.5934 19.6488 11.5468 19.6006 11.3711C19.8193 10.6368 20.2782 10.1243 20.9776 9.83369C22.5025 9.65439 24.0171 9.42139 25.5214 9.13489C26.4864 8.66809 27.3354 8.03919 28.0688 7.24819C28.1244 6.00019 27.5508 5.41789 26.3476 5.50119C26.0484 5.76179 26.0024 6.06459 26.2099 6.40959C26.1411 6.45619 26.0722 6.50289 26.0034 6.54939C25.6912 6.44159 25.4388 6.25529 25.2461 5.99039C24.1288 6.34209 23.2797 6.01609 22.6987 5.01199C22.5792 4.42899 22.7857 3.98649 23.3183 3.68429C23.961 3.31159 24.6034 2.93899 25.2461 2.56629C25.5801 2.07489 25.9473 1.60902 26.3476 1.16866C27.0544 0.936064 27.7659 0.912784 28.4819 1.09878C29.1005 0.726524 29.766 0.493594 30.4784 0.399994C33.7456 1.07951 37.0503 1.38233 40.3924 1.30842C49.1173 1.82471 53.4087 6.50659 53.2667 15.3542C52.7706 17.3381 52.0133 19.2015 50.9948 20.9446Z" fill="#61B674" />
  <path fill-rule="evenodd" clip-rule="evenodd" d="M37.0877 16.1928C31.4422 16.3791 25.7968 16.3791 20.1514 16.1928C21.1163 16.216 22.0802 16.1928 23.0429 16.1229C23.4563 15.7731 23.9152 15.4936 24.4199 15.2843C27.2196 15.1911 30.0195 15.1911 32.8192 15.2843C33.1662 15.5307 33.4874 15.8103 33.783 16.1229C34.8836 16.1928 35.9852 16.216 37.0877 16.1928Z" fill="#70BD82" />
  <path fill-rule="evenodd" clip-rule="evenodd" d="M20.1514 16.1928C25.7969 16.3791 31.4423 16.3791 37.0877 16.1928C39.7509 16.1939 42.4129 16.1473 45.074 16.053C45.7436 16.0084 46.3862 16.055 47.0017 16.1928C42.8655 16.4727 38.7347 16.7057 34.6093 16.8916C30.0195 16.8916 25.4296 16.8916 20.8399 16.8916C15.4584 16.6812 10.0884 16.2853 4.72974 15.7036C9.86424 15.9862 15.0048 16.1493 20.1514 16.1928Z" fill="#F3F9F4" />
  <path fill-rule="evenodd" clip-rule="evenodd" d="M47.0017 16.1928C46.3862 16.055 45.7436 16.0084 45.074 16.053C47.069 15.8669 49.0886 15.797 51.1325 15.8434C49.756 15.9753 48.379 16.0919 47.0017 16.1928Z" fill="#BBDFC3" />
  <path fill-rule="evenodd" clip-rule="evenodd" d="M20.8399 16.8916C25.4297 16.8916 30.0196 16.8916 34.6093 16.8916C35.2786 17.8777 35.8064 18.9491 36.1928 20.106C37.1091 24.0471 36.0764 27.3548 33.0947 30.0289C29.7428 30.3996 26.3923 30.3996 23.043 30.0289C22.7963 29.9158 22.5209 29.846 22.2169 29.8193C21.5514 29.3301 20.9776 28.7477 20.4957 28.0723C18.1136 24.2626 18.2284 20.5356 20.8399 16.8916Z" fill="#70BD82" />
  <path opacity="0.831" fill-rule="evenodd" clip-rule="evenodd" d="M6.10657 25.4169C5.37617 24.0279 4.64177 22.6303 3.90347 21.2241C3.40147 21.0498 2.94257 20.7936 2.52657 20.4554C1.81107 20.2286 1.39797 20.4848 1.28727 21.2241C1.53097 23.3529 1.92117 25.4493 2.45767 27.5133C2.97507 28.6917 3.70937 29.7166 4.66077 30.5879C5.36127 31.6838 6.09557 32.7553 6.86387 33.8024C8.32687 35.4419 10.1398 36.4434 12.3028 36.8072C14.4524 37.0641 16.6096 37.2039 18.7744 37.2265C21.4317 37.3248 23.7265 38.2797 25.6591 40.0916C25.7398 40.0624 25.8087 40.0157 25.8657 39.9518C25.6325 35.4762 23.4983 32.3316 19.4629 30.5181C17.4256 29.7037 15.3142 29.1913 13.129 28.9807C11.2208 28.5023 9.31607 28.0132 7.41467 27.5133C6.77497 27.5573 6.47657 27.9067 6.51967 28.5614C6.65367 29.4915 7.15857 30.1437 8.03427 30.5181C9.57527 30.8998 11.0899 31.3656 12.5782 31.9157C11.1103 31.5897 9.64157 31.2171 8.17197 30.7976C6.72677 30.3076 6.10717 29.3061 6.31317 27.7928C6.51027 27.5218 6.76267 27.3355 7.07047 27.2337C7.53177 27.2107 7.99067 27.234 8.44737 27.3036C10.6644 27.9478 12.9135 28.4369 15.1944 28.7711C15.2862 28.7711 15.378 28.7711 15.4698 28.7711C15.5169 28.8882 15.6086 28.9349 15.7452 28.9108C16.5289 29.0327 17.3092 29.1725 18.086 29.3301C18.1778 29.3301 18.2237 29.3767 18.2237 29.4699C18.3614 29.4699 18.4991 29.4699 18.6367 29.4699C20.2049 30.1495 21.6737 31.0114 23.0429 32.0554C25.3225 34.2844 26.447 37.0097 26.4164 40.2313C26.2328 40.735 25.8885 40.8981 25.3837 40.7205C24.2431 39.6056 22.912 38.8136 21.3906 38.3446C17.8999 37.9386 14.4116 37.5193 10.9259 37.0867C8.90537 36.3991 7.23007 35.2112 5.90007 33.5229C5.44117 32.7776 4.98207 32.0321 4.52307 31.2867C3.69017 30.3017 2.90987 29.2769 2.18237 28.212C1.66987 25.9215 1.23377 23.6155 0.874268 21.294C1.04917 20.2494 1.64587 19.8767 2.66427 20.1759C3.20797 20.4997 3.73597 20.8491 4.24777 21.2241C4.90757 22.6097 5.52717 24.0073 6.10657 25.4169Z" fill="#F7FAFB" />
  <path opacity="0.833" fill-rule="evenodd" clip-rule="evenodd" d="M36.5369 29.4699C36.7147 29.503 36.8524 29.4565 36.95 29.3301C36.9958 29.3301 37.0418 29.3301 37.0877 29.3301C37.2654 29.3632 37.4031 29.3167 37.5008 29.1904C37.7209 29.2278 37.9045 29.1811 38.0515 29.0506C40.9486 28.7347 43.7943 28.1525 46.5885 27.3036C47.0914 27.2339 47.5962 27.2107 48.1032 27.2337C48.869 27.5972 49.1216 28.2028 48.8605 29.0506C48.4623 29.8741 47.8427 30.4564 47.0016 30.7976C45.7672 31.146 44.528 31.4255 43.2839 31.6361C44.5168 31.2417 45.756 30.869 47.0016 30.5181C48.2853 30.0155 48.7673 29.1071 48.4474 27.7928C48.208 27.5979 47.9326 27.5047 47.6212 27.5133C46.1105 27.8223 44.6188 28.2182 43.1462 28.7012C41.0597 29.0154 38.9943 29.4347 36.95 29.959C34.8014 30.7573 32.9425 31.9918 31.3734 33.6627C29.9682 35.5189 29.2798 37.6153 29.308 39.9518C29.365 40.0157 29.4338 40.0624 29.5145 40.0916C31.4358 38.256 33.7307 37.301 36.3992 37.2265C38.4727 37.2047 40.5381 37.0649 42.5954 36.8072C45.0243 36.4479 47.0209 35.3066 48.5851 33.3831C49.6449 31.6986 50.8383 30.1146 52.1651 28.6313C52.3487 28.2586 52.5324 27.886 52.7159 27.5133C53.1169 25.4424 53.5071 23.3694 53.8863 21.294C53.7379 20.519 53.2789 20.2395 52.5094 20.4554C52.1869 20.8448 51.7738 21.0778 51.2701 21.1542C50.6322 22.4731 49.9437 23.7543 49.2047 24.9976C49.7087 23.7878 50.2136 22.5765 50.7193 21.3639C50.8347 21.3161 50.8807 21.223 50.857 21.0843C50.9489 21.0843 50.9947 21.0378 50.9947 20.9446C51.5334 20.8325 51.9923 20.5763 52.3717 20.1759C53.0637 19.9671 53.6374 20.1302 54.0928 20.6651C54.1567 21.5077 54.1109 22.3462 53.9551 23.1807C53.6361 24.6627 53.3607 26.1535 53.129 27.653C52.9832 28.0888 52.7996 28.5081 52.5782 28.9108C51.2256 30.4232 50.0324 32.0536 48.9982 33.8024C47.419 35.8038 45.3764 36.9917 42.8708 37.3663C40.6285 37.6278 38.3795 37.8141 36.1238 37.9253C33.6504 38.0466 31.5392 38.9782 29.7899 40.7205C29.5145 40.8137 29.2391 40.8137 28.9638 40.7205C28.5107 37.211 29.6123 34.2761 32.2684 31.9157C33.6195 30.951 35.0422 30.1358 36.5369 29.4699Z" fill="#F7FAFB" />
  <path fill-rule="evenodd" clip-rule="evenodd" d="M6.10655 25.4169C6.46075 25.9953 6.78195 26.601 7.07045 27.2337C6.76265 27.3355 6.51025 27.5218 6.31315 27.7928C6.10715 29.3061 6.72675 30.3076 8.17195 30.7976C9.64155 31.2172 11.1103 31.5897 12.5782 31.9157C11.0899 31.3656 9.57525 30.8998 8.03425 30.5181C7.15855 30.1437 6.65365 29.4915 6.51965 28.5614C6.47655 27.9067 6.77495 27.5573 7.41465 27.5133C9.31605 28.0132 11.2208 28.5023 13.129 28.9807C15.3142 29.1913 17.4256 29.7037 19.4629 30.5181C23.4983 32.3316 25.6326 35.4762 25.8657 39.9518C25.8087 40.0157 25.7398 40.0624 25.6591 40.0916C23.7265 38.2797 21.4317 37.3248 18.7744 37.2265C16.6096 37.2039 14.4524 37.0641 12.3028 36.8072C10.1398 36.4434 8.32685 35.4419 6.86385 33.8024C6.09555 32.7553 5.36125 31.6838 4.66075 30.588C3.70935 29.7166 2.97505 28.6917 2.45765 27.5133C1.92115 25.4493 1.53095 23.3529 1.28735 21.2241C1.39795 20.4848 1.81105 20.2286 2.52655 20.4554C2.94255 20.7936 3.40145 21.0498 3.90345 21.2241C4.64175 22.6304 5.37615 24.0279 6.10655 25.4169Z" fill="#488BA0" />
  <path fill-rule="evenodd" clip-rule="evenodd" d="M48.1034 27.2337C48.4007 26.444 48.7679 25.6986 49.2049 24.9976C49.9439 23.7543 50.6324 22.4731 51.2703 21.1542C51.774 21.0778 52.1871 20.8448 52.5096 20.4554C53.2792 20.2395 53.7381 20.519 53.8865 21.294C53.5073 23.3694 53.1171 25.4424 52.7161 27.5133C52.5326 27.886 52.3489 28.2586 52.1653 28.6313C50.8385 30.1146 49.6451 31.6986 48.5853 33.3831C47.0211 35.3066 45.0246 36.4479 42.5956 36.8072C40.5384 37.0649 38.473 37.2047 36.3994 37.2265C33.7309 37.301 31.436 38.256 29.5147 40.0916C29.4341 40.0624 29.3652 40.0157 29.3082 39.9518C29.28 37.6153 29.9684 35.5189 31.3736 33.6627C32.9428 31.9918 34.8016 30.7573 36.9502 29.959C38.9945 29.4347 41.0599 29.0154 43.1464 28.7012C44.619 28.2182 46.1107 27.8223 47.6215 27.5133C47.9328 27.5047 48.2082 27.5979 48.4476 27.7928C48.7675 29.1071 48.2856 30.0155 47.0018 30.5181C45.7563 30.869 44.517 31.2417 43.2841 31.6361C44.5282 31.4255 45.7674 31.146 47.0018 30.7976C47.8429 30.4564 48.4625 29.8741 48.8607 29.0506C49.1218 28.2028 48.8692 27.5972 48.1034 27.2337Z" fill="#488BA0" />
  <path opacity="0.946" fill-rule="evenodd" clip-rule="evenodd" d="M3.21509 41.0699C4.37079 41.0238 5.51829 41.0936 6.65739 41.2795C7.45069 42.0114 7.70319 42.9199 7.41469 44.0048C7.25409 44.3542 7.00169 44.6104 6.65739 44.7735C7.44519 45.1341 7.81229 45.763 7.75899 46.6602C7.74249 47.4629 7.42119 48.0918 6.79509 48.547C5.61119 48.7393 4.41779 48.8092 3.21509 48.7566C3.21509 46.1944 3.21509 43.6321 3.21509 41.0699ZM4.31659 42.3277C4.82359 42.3047 5.32839 42.3279 5.83129 42.3976C6.55509 42.9784 6.55509 43.584 5.83129 44.2145C5.32839 44.2842 4.82359 44.3074 4.31659 44.2843C4.31659 43.6321 4.31659 42.98 4.31659 42.3277ZM4.31659 45.4024C4.82359 45.3794 5.32839 45.4026 5.83129 45.4723C6.74929 46.1245 6.74929 46.7767 5.83129 47.4289C5.32839 47.4987 4.82359 47.5219 4.31659 47.4988C4.31659 46.8 4.31659 46.1012 4.31659 45.4024Z" fill="#468AA0" />
  <path opacity="0.913" fill-rule="evenodd" clip-rule="evenodd" d="M8.58521 41.0699C9.87031 41.0699 11.1555 41.0699 12.4406 41.0699C12.4406 41.4892 12.4406 41.9084 12.4406 42.3277C11.5686 42.3277 10.6965 42.3277 9.82441 42.3277C9.82441 42.98 9.82441 43.6321 9.82441 44.2843C10.5588 44.2843 11.2932 44.2843 12.0275 44.2843C12.0657 44.6963 12.0198 45.0923 11.8899 45.4723C11.2029 45.542 10.5144 45.5654 9.82441 45.5422C9.82441 46.1477 9.82441 46.7535 9.82441 47.359C10.7425 47.359 11.6603 47.359 12.5783 47.359C12.5783 47.8249 12.5783 48.2908 12.5783 48.7566C11.2472 48.7566 9.91631 48.7566 8.58521 48.7566C8.58521 46.1944 8.58521 43.6321 8.58521 41.0699Z" fill="#468AA0" />
  <path opacity="0.956" fill-rule="evenodd" clip-rule="evenodd" d="M33.3701 41.0699C33.776 41.0312 34.1661 41.0777 34.5405 41.2096C34.6094 42.1868 34.6322 43.1651 34.6094 44.1446C35.2978 44.1446 35.9863 44.1446 36.6748 44.1446C36.6748 43.1197 36.6748 42.0947 36.6748 41.0699C37.0878 41.0699 37.5009 41.0699 37.914 41.0699C37.914 43.6321 37.914 46.1944 37.914 48.7566C37.5009 48.7566 37.0878 48.7566 36.6748 48.7566C36.6748 47.6851 36.6748 46.6137 36.6748 45.5422C35.9863 45.5422 35.2978 45.5422 34.6094 45.5422C34.6094 46.6137 34.6094 47.6851 34.6094 48.7566C34.1963 48.7566 33.7832 48.7566 33.3701 48.7566C33.3701 46.1944 33.3701 43.6321 33.3701 41.0699Z" fill="#458A9F" />
  <path opacity="0.916" fill-rule="evenodd" clip-rule="evenodd" d="M40.3923 41.0699C40.8602 41.0252 41.3193 41.0717 41.7692 41.2096C42.4477 43.7083 43.1361 46.2007 43.8347 48.6867C43.3779 48.7564 42.919 48.7797 42.4577 48.7566C42.3635 48.1877 42.2258 47.6286 42.0446 47.0795C41.316 46.9405 40.5816 46.8939 39.8415 46.9398C39.7474 47.5087 39.6097 48.0678 39.4285 48.6169C39.1196 48.753 38.7984 48.7997 38.4646 48.7566C38.9998 46.1647 39.6423 43.6023 40.3923 41.0699ZM40.8054 43.0265C40.9549 43.0433 41.0468 43.1365 41.0808 43.306C41.322 44.0864 41.5056 44.8783 41.6316 45.6819C41.1726 45.6819 40.7135 45.6819 40.2546 45.6819C40.4601 44.8014 40.6436 43.9162 40.8054 43.0265Z" fill="#468AA0" />
  <path opacity="0.924" fill-rule="evenodd" clip-rule="evenodd" d="M45.487 41.0699C47.4935 40.8697 48.5034 41.8015 48.5163 43.8651C48.1491 43.8651 47.782 43.8651 47.4148 43.8651C47.3902 43.0689 47.023 42.5098 46.3132 42.188C45.9043 42.3469 45.606 42.6264 45.4182 43.0265C45.0372 44.1309 44.9913 45.249 45.2805 46.3807C45.6461 47.6218 46.2887 47.8082 47.2082 46.9398C47.3427 46.6267 47.4116 46.3006 47.4148 45.9614C47.7765 46.0442 48.1437 46.0907 48.5163 46.1012C48.315 48.5243 47.1216 49.293 44.9363 48.4072C43.98 47.0502 43.6358 45.536 43.9036 43.8651C44.0067 42.67 44.5345 41.7383 45.487 41.0699Z" fill="#468AA0" />
  <path opacity="0.948" fill-rule="evenodd" clip-rule="evenodd" d="M13.2668 41.0699C14.4239 41.0182 15.5713 41.0881 16.7092 41.2795C17.5436 41.7418 17.9567 42.464 17.9484 43.4458C17.6463 45.4424 16.4989 46.2344 14.5061 45.8217C14.5061 46.8 14.5061 47.7783 14.5061 48.7566C14.093 48.7566 13.6799 48.7566 13.2668 48.7566C13.2668 46.1944 13.2668 43.6321 13.2668 41.0699ZM14.5061 42.3277C15.1169 42.2872 15.7137 42.3571 16.2961 42.5374C16.7031 43.1893 16.6571 43.7949 16.1584 44.3542C15.6096 44.424 15.0588 44.4473 14.5061 44.4241C14.5061 43.7253 14.5061 43.0265 14.5061 42.3277Z" fill="#468AA0" />
  <path opacity="0.918" fill-rule="evenodd" clip-rule="evenodd" d="M19.6008 41.0699C20.0687 41.0252 20.5278 41.0717 20.9777 41.2096C21.6562 43.7083 22.3446 46.2007 23.0431 48.6867C22.5864 48.7564 22.1275 48.7797 21.6662 48.7566C21.572 48.1877 21.4343 47.6286 21.2531 47.0795C20.5245 46.9405 19.7901 46.8939 19.05 46.9398C18.9695 47.5115 18.8318 48.0706 18.637 48.6169C18.3281 48.753 18.0069 48.7997 17.6731 48.7566C18.2513 46.1765 18.8937 43.6142 19.6008 41.0699ZM20.1516 43.0265C20.4854 43.8687 20.7149 44.7538 20.84 45.6819C20.3811 45.6819 19.922 45.6819 19.4631 45.6819C19.6288 44.7766 19.8582 43.8913 20.1516 43.0265Z" fill="#468AA0" />
  <path opacity="0.945" fill-rule="evenodd" clip-rule="evenodd" d="M25.7969 41.0699C26.716 41.0467 27.634 41.0699 28.5507 41.1398C29.2782 41.2257 29.7601 41.6218 29.9965 42.3277C30.1436 43.064 30.0517 43.7628 29.7211 44.4241C29.5968 44.5919 29.4363 44.7085 29.2392 44.7735C29.9756 45.1726 30.3427 45.8016 30.3408 46.6602C30.326 47.459 30.0048 48.0879 29.3769 48.547C28.193 48.7393 26.9996 48.8092 25.7969 48.7566C25.7969 46.1944 25.7969 43.6321 25.7969 41.0699ZM26.8984 42.3277C27.4054 42.3046 27.9102 42.3278 28.4131 42.3976C29.0784 42.8916 29.1242 43.4507 28.5507 44.0747C28.0188 44.2639 27.4681 44.3338 26.8984 44.2843C26.8984 43.6321 26.8984 42.98 26.8984 42.3277ZM26.8984 45.4024C27.4054 45.3793 27.9102 45.4025 28.4131 45.4723C29.3311 46.1245 29.3311 46.7767 28.4131 47.4289C27.9102 47.4987 27.4054 47.5219 26.8984 47.4988C26.8984 46.8 26.8984 46.1012 26.8984 45.4024Z" fill="#60B673" />
  <path opacity="0.965" fill-rule="evenodd" clip-rule="evenodd" d="M14.6436 49.7349C15.0592 49.7119 15.4723 49.7352 15.8829 49.8048C11.983 52.2946 10.5831 55.8119 11.6832 60.3566C12.3687 62.473 13.6768 64.0569 15.6075 65.1084C12.7453 62.8601 11.5749 59.832 12.0963 56.0241C12.5789 53.2482 14.0247 51.1752 16.4337 49.8048C18.2237 49.7116 20.0137 49.7116 21.8037 49.8048C19.2047 51.2315 17.3917 53.3512 16.3648 56.1639C15.551 58.1381 15.2757 60.1879 15.5387 62.3132C15.7851 63.9567 16.5424 65.2844 17.8106 66.2964C18.3348 66.5593 18.8856 66.7222 19.4629 66.7855C19.3631 63.418 20.9237 61.3915 24.1445 60.706C25.0102 60.5513 25.8822 60.4814 26.7607 60.4964C26.4667 56.9068 26.1455 53.3196 25.7968 49.7349C27.1279 49.7349 28.4589 49.7349 29.7899 49.7349C29.5604 53.4617 29.331 57.1887 29.1015 60.9157C29.4442 60.9439 29.7656 60.874 30.0653 60.706C33.2412 56.8114 37.3262 54.6918 42.3201 54.347C46.5535 54.4989 48.9401 56.6885 49.4801 60.9157C49.4525 62.5089 48.9247 63.9065 47.8967 65.1084C45.472 67.9901 42.4198 69.0383 38.74 68.253C37.8112 68.0639 36.8931 67.8309 35.9862 67.5542C34.3476 66.9067 32.6953 66.3477 31.0292 65.8771C30.2158 66.5113 29.3667 67.0937 28.4819 67.6241C28.4002 69.2098 28.4232 70.7937 28.5507 72.3759C30.0608 72.483 31.5754 72.5528 33.0946 72.5855C31.6178 73.1092 30.1032 73.2955 28.5507 73.1446C28.848 73.7156 29.3069 74.0884 29.9276 74.2626C31.0655 74.6241 32.2131 74.9501 33.37 75.241C32.4554 75.6713 31.4916 75.9508 30.4784 76.0795C27.8626 76.4841 25.2923 76.2977 22.7676 75.5205C22.6062 75.4619 22.4685 75.3688 22.3545 75.241C23.7718 74.9512 25.1487 74.532 26.4853 73.9831C26.6918 73.7735 26.8984 73.5639 27.1049 73.3542C27.2081 73.1956 27.1852 73.0558 27.0361 72.9349C24.4462 72.4592 22.1972 71.3178 20.2891 69.5108C17.8179 69.388 15.4313 68.8755 13.129 67.9735C7.80001 64.8591 6.53791 60.5032 9.34241 54.906C10.7696 52.8198 12.5367 51.0962 14.6436 49.7349ZM43.9724 63.8506C45.1108 62.7272 45.7533 61.3528 45.9001 59.7277C45.7714 57.6868 44.7157 56.4755 42.7332 56.094C41.1531 55.893 39.6385 56.1258 38.1893 56.7928C35.713 58.0475 33.6017 59.7712 31.8554 61.9639C31.3621 61.9288 30.9031 61.7658 30.4784 61.4747C32.9473 58.4728 36.0684 56.4928 39.8416 55.5349C41.5688 55.2164 43.2211 55.4494 44.7986 56.2337C46.0312 57.2222 46.5131 58.5033 46.2443 60.0771C46.0498 61.2303 45.5908 62.2551 44.8674 63.1518C44.6227 63.4719 44.3243 63.7048 43.9724 63.8506ZM39.5662 59.5181C40.4052 59.4676 41.2313 59.5375 42.0447 59.7277C43.4149 60.4961 43.805 61.6375 43.2151 63.1518C42.2978 65.0939 40.8061 65.7695 38.74 65.1783C37.1041 64.7956 35.5666 64.1667 34.1273 63.2916C34.0355 63.1983 34.0355 63.1053 34.1273 63.012C35.6721 61.402 37.4851 60.2374 39.5662 59.5181ZM35.0223 65.2482C32.921 64.3743 30.7639 63.6521 28.5507 63.0819C26.6644 62.6334 24.7826 62.6334 22.9053 63.0819C21.2098 63.8435 20.4525 65.1712 20.6333 67.0651C20.1734 67.0085 19.921 66.7523 19.876 66.2964C20.3265 63.3251 22.0477 61.8576 25.0395 61.894C28.6102 62.3023 31.9378 63.4204 35.0223 65.2482ZM24.5576 63.7108C25.3825 63.776 26.2087 63.8225 27.0361 63.8506C26.8728 64.6932 26.4137 65.3221 25.6591 65.7373C24.4591 66.3762 23.1969 66.8188 21.8726 67.0651C21.6781 65.0494 22.5731 63.9314 24.5576 63.7108ZM26.8984 68.1831C27.0361 68.1831 27.1738 68.1831 27.3115 68.1831C27.4291 69.4836 27.4749 70.7881 27.4492 72.0964C25.6236 71.6591 24.0631 70.7506 22.7676 69.3711C24.1862 69.1044 25.5632 68.7085 26.8984 68.1831Z" fill="#60B673" />
</svg>