<svg width="85" height="85" viewBox="0 0 85 85" fill="none" xmlns="http://www.w3.org/2000/svg">
<g clip-path="url(#clip0_159_26749)">
<path d="M73.4426 14.0854L69.4705 6.21914C69.1668 5.61727 68.4327 5.37591 67.8308 5.67977C67.2289 5.98363 66.9874 6.71781 67.2914 7.31952L68.6852 10.08C61.2952 4.08901 52.1515 0.831482 42.5061 0.831482C31.3766 0.831482 20.9135 5.16563 13.0436 13.0353C5.17383 20.9049 0.839844 31.3682 0.839844 42.4977C0.839844 53.6272 5.17399 64.0905 13.0436 71.9601C13.2819 72.1984 13.5944 72.3177 13.9067 72.3177C14.2191 72.3177 14.5315 72.1986 14.7698 71.9601C15.2465 71.4834 15.2465 70.7105 14.7698 70.2339C7.36124 62.8254 3.28116 52.9752 3.28116 42.4977C3.28116 32.0202 7.36124 22.1702 14.77 14.7615C22.1786 7.35288 32.0286 3.2728 42.5061 3.2728C51.6055 3.2728 60.231 6.35194 67.1957 12.0146L64.1423 11.2105C63.4903 11.0388 62.8227 11.4281 62.651 12.0801C62.4793 12.7319 62.8686 13.3997 63.5204 13.5714L72.0419 15.8158C72.1449 15.843 72.2492 15.8561 72.3528 15.8561C72.7157 15.8561 73.0664 15.6939 73.3016 15.4034C73.6038 15.0302 73.659 14.5142 73.4426 14.0854Z" fill="white"/>
<path d="M29.2927 79.4418C28.5042 79.1598 27.7139 78.8478 26.9439 78.5146C26.3251 78.2469 25.6065 78.5315 25.339 79.1502C25.0712 79.769 25.3559 80.4875 25.9745 80.7551C26.7927 81.1091 27.6325 81.4406 28.4704 81.7404C28.6063 81.7889 28.7451 81.812 28.8815 81.812C29.3826 81.812 29.8525 81.501 30.031 81.0022C30.258 80.3674 29.9275 79.6689 29.2927 79.4418Z" fill="white"/>
<path d="M37.2543 81.3744C36.4223 81.263 35.584 81.1232 34.7627 80.9589C34.1011 80.8259 33.4584 81.2552 33.3262 81.9162C33.1939 82.5773 33.6224 83.2203 34.2835 83.3526C35.1561 83.5273 36.0467 83.6759 36.9306 83.794C36.9854 83.8014 37.0401 83.8049 37.094 83.8049C37.6962 83.8049 38.2202 83.3593 38.3023 82.7461C38.392 82.0779 37.9226 81.4637 37.2543 81.3744Z" fill="white"/>
<path d="M46.7544 82.7413C46.7046 82.069 46.12 81.5633 45.447 81.6141C44.6129 81.6758 43.764 81.7116 42.9237 81.7204C42.2496 81.7274 41.7089 82.2796 41.7159 82.9537C41.7229 83.6235 42.268 84.1615 42.9362 84.1615C42.9405 84.1615 42.9448 84.1615 42.9492 84.1615C43.8408 84.1523 44.7418 84.1142 45.6272 84.0488C46.2995 83.9989 46.8041 83.4137 46.7544 82.7413Z" fill="white"/>
<path d="M82.0357 29.2918C81.7538 28.4476 81.4403 27.6015 81.1041 26.7766C80.8497 26.1525 80.1375 25.8525 79.513 26.1072C78.8888 26.3616 78.589 27.074 78.8436 27.6983C79.16 28.4745 79.4549 29.2707 79.7202 30.0651C79.8909 30.5763 80.367 30.8994 80.8779 30.8994C81.006 30.8994 81.1363 30.879 81.2646 30.8362C81.904 30.6227 82.2492 29.9311 82.0357 29.2918Z" fill="white"/>
<path d="M83.9093 37.7898C83.8095 36.9041 83.6799 36.0114 83.524 35.1368C83.4055 34.4731 82.771 34.0312 82.1081 34.1494C81.4442 34.2675 81.0022 34.9015 81.1205 35.5652C81.2673 36.3885 81.3893 37.229 81.4833 38.0628C81.5534 38.6863 82.0817 39.1471 82.6948 39.1471C82.7404 39.1471 82.7864 39.1445 82.8328 39.1394C83.5027 39.0641 83.9846 38.4597 83.9093 37.7898Z" fill="white"/>
<path d="M55.0196 80.9898C54.8309 80.3426 54.1532 79.9712 53.5061 80.1596C52.7024 80.394 51.88 80.6051 51.0619 80.787C50.4039 80.9334 49.989 81.5855 50.1353 82.2437C50.2618 82.8125 50.7662 83.1995 51.3257 83.1995C51.4134 83.1995 51.5026 83.1899 51.5918 83.1703C52.4614 82.9769 53.3352 82.7525 54.1894 82.5035C54.8366 82.3147 55.2082 81.6371 55.0196 80.9898Z" fill="white"/>
<path d="M21.9112 75.8876C21.1989 75.4472 20.4907 74.9775 19.807 74.4913C19.2575 74.1007 18.4954 74.2296 18.1049 74.7791C17.7145 75.3285 17.8432 76.0907 18.3927 76.4812C19.119 76.9974 19.871 77.4964 20.6278 77.9642C20.8278 78.0877 21.0493 78.1466 21.2684 78.1466C21.6774 78.1466 22.0771 77.9411 22.3079 77.5676C22.6622 76.9943 22.4846 76.2421 21.9112 75.8876Z" fill="white"/>
<path d="M79.4656 58.9943C78.8589 58.7003 78.1288 58.9544 77.8352 59.5613C77.4699 60.316 77.0751 61.0689 76.6617 61.7988C76.3294 62.3854 76.5357 63.1303 77.1223 63.4625C77.3122 63.5701 77.5189 63.6214 77.7227 63.6214C78.1481 63.6214 78.5614 63.3985 78.786 63.0021C79.2252 62.2264 79.6447 61.4266 80.0327 60.6247C80.3264 60.0178 80.0725 59.2879 79.4656 58.9943Z" fill="white"/>
<path d="M78.4272 21.372C77.9755 20.6056 77.4926 19.8435 76.992 19.1067C76.6131 18.5491 75.8539 18.4044 75.2964 18.7831C74.7388 19.162 74.594 19.9211 74.9729 20.4787C75.4442 21.1723 75.8988 21.8899 76.3241 22.6114C76.5514 22.9976 76.9585 23.2126 77.3766 23.2126C77.5872 23.2126 77.8006 23.1581 77.9952 23.0434C78.5761 22.7013 78.7694 21.9529 78.4272 21.372Z" fill="white"/>
<path d="M82.9699 42.5552C82.2939 42.5332 81.7328 43.0636 81.7119 43.7374C81.6859 44.5766 81.6327 45.4244 81.5534 46.2572C81.4896 46.9284 81.9819 47.5241 82.6531 47.5879C82.6925 47.5916 82.7314 47.5934 82.77 47.5934C83.392 47.5934 83.9238 47.1199 83.9838 46.4881C84.0678 45.6039 84.1244 44.7038 84.1521 43.8133C84.1729 43.1393 83.6437 42.5762 82.9699 42.5552Z" fill="white"/>
<path d="M75.2263 66.3083C74.6938 65.8951 73.927 65.9918 73.5136 66.5243C72.9995 67.1869 72.4574 67.8411 71.9022 68.4689C71.4556 68.9739 71.503 69.7454 72.008 70.1918C72.2403 70.3972 72.5288 70.4981 72.8161 70.4981C73.1536 70.4981 73.4897 70.359 73.7309 70.086C74.3206 69.4194 74.8962 68.7246 75.4423 68.021C75.8555 67.4885 75.7588 66.7216 75.2263 66.3083Z" fill="white"/>
<path d="M82.0846 50.9575C81.4297 50.7972 80.769 51.1982 80.6087 51.853C80.4095 52.6669 80.1812 53.4846 79.9299 54.2836C79.7276 54.9268 80.0848 55.612 80.7279 55.8143C80.8498 55.8527 80.9731 55.8709 81.0946 55.8709C81.6134 55.8709 82.0947 55.5374 82.2586 55.0163C82.5257 54.1672 82.7685 53.2981 82.9801 52.4332C83.1404 51.7786 82.7393 51.1177 82.0846 50.9575Z" fill="white"/>
<path d="M62.7345 77.5506C62.4145 76.9572 61.6743 76.7353 61.0809 77.0548C60.3434 77.4521 59.584 77.8302 58.824 78.1781C58.211 78.4589 57.9418 79.1833 58.2224 79.7962C58.4277 80.2445 58.8702 80.5089 59.3329 80.5089C59.503 80.5089 59.6757 80.4731 59.8405 80.3978C60.6481 80.0278 61.455 79.6263 62.2387 79.2041C62.8321 78.8843 63.0541 78.1441 62.7345 77.5506Z" fill="white"/>
<path d="M69.5658 72.583C69.1299 72.0685 68.3597 72.0047 67.8453 72.4406C67.2058 72.9824 66.5406 73.5102 65.8683 74.0095C65.327 74.4115 65.214 75.176 65.616 75.7173C65.8556 76.0399 66.2239 76.2103 66.597 76.2103C66.8499 76.2103 67.1051 76.132 67.3237 75.9696C68.0378 75.4393 68.7442 74.8787 69.4233 74.3035C69.9376 73.8676 70.0014 73.0975 69.5658 72.583Z" fill="white"/>
<path d="M54.5991 28.2816C53.9535 28.0879 53.273 28.4543 53.0792 29.0999L45.251 55.1937C45.0573 55.8395 45.4237 56.5199 46.0693 56.7136C46.1864 56.7488 46.3044 56.7654 46.4206 56.7654C46.9456 56.7654 47.4306 56.4239 47.5893 55.8951L55.4175 29.8014C55.6113 29.1557 55.2448 28.4753 54.5991 28.2816Z" fill="white"/>
<path d="M69.6385 32.723C69.416 32.3632 69.0231 32.1441 68.6001 32.1441H58.1626C57.4884 32.1441 56.9419 32.6906 56.9419 33.3648C56.9419 34.0389 57.4884 34.5854 58.1626 34.5854H66.625L58.3754 51.0846C58.0738 51.6876 58.3183 52.4208 58.9213 52.7223C59.0966 52.81 59.2828 52.8513 59.4662 52.8513C59.9139 52.8513 60.3451 52.6039 60.5589 52.1764L69.6919 33.9106C69.8812 33.5324 69.861 33.0829 69.6385 32.723Z" fill="white"/>
<path d="M42.5061 45.1909H41.1175V33.3647C41.1175 32.6906 40.5709 32.1441 39.8968 32.1441C39.2227 32.1441 38.6762 32.6906 38.6762 33.3647V45.1909H32.2531L34.5704 33.6041C34.7025 32.943 34.2738 32.3 33.6127 32.1678C32.9509 32.0355 32.3087 32.4644 32.1764 33.1255L29.5671 46.1723C29.4955 46.5309 29.5883 46.9028 29.82 47.1857C30.052 47.4685 30.3983 47.6324 30.764 47.6324H38.6762V51.6305C38.6762 52.3046 39.2227 52.8511 39.8968 52.8511C40.5709 52.8511 41.1175 52.3046 41.1175 51.6305V47.6324H42.5061V47.6322C43.1802 47.6322 43.7267 47.0857 43.7267 46.4116C43.7267 45.7376 43.1802 45.1909 42.5061 45.1909Z" fill="white"/>
<path d="M26.8499 50.4099H19.8277C20.6403 49.7016 21.5646 48.8569 22.4943 47.9274C26.1945 44.2272 28.0706 41.0836 28.0706 38.5837C28.0706 35.0328 25.1818 32.1443 21.631 32.1443C18.0802 32.1443 15.1917 35.033 15.1917 38.5837C15.1917 39.2578 15.7382 39.8043 16.4123 39.8043C17.0864 39.8043 17.633 39.2578 17.633 38.5837C17.633 36.3791 19.4265 34.5856 21.631 34.5856C23.8354 34.5856 25.6292 36.3791 25.6292 38.5837C25.6292 40.357 23.9097 43.0555 20.7871 46.1818C18.2684 48.7037 15.7053 50.635 15.6798 50.6542C15.2595 50.9696 15.0883 51.5184 15.2545 52.0167C15.4206 52.5151 15.8871 52.8512 16.4123 52.8512H26.8499C27.524 52.8512 28.0706 52.3047 28.0706 51.6305C28.0706 50.9564 27.524 50.4099 26.8499 50.4099Z" fill="white"/>
</g>
<defs>
<clipPath id="clip0_159_26749">
<rect width="83.33" height="83.33" fill="white" transform="translate(0.831299 0.831482)"/>
</clipPath>
</defs>
</svg>
