<svg width="62" height="56" viewBox="0 0 62 56" fill="none" xmlns="http://www.w3.org/2000/svg">
<g clip-path="url(#clip0_2020_424)" filter="url(#filter0_f_2020_424)">
<path d="M54.873 22.6793C54.9055 22.6113 54.9304 22.5401 54.9475 22.4665C55.522 19.9876 54.3538 18.323 53.3475 17.5344C53.1193 15.6753 51.3667 14.486 49.9324 13.9118C49.7863 12.1605 49.1215 10.7384 47.95 9.6768C46.0327 7.93975 43.2857 7.70537 41.9425 7.70537C41.9287 7.70537 41.9153 7.70537 41.9014 7.70537C40.5928 5.46864 37.5985 5.36529 35.8525 5.68959C34.8283 5.33966 33.7956 5.06134 32.7796 4.86073C32.2136 4.74924 31.663 5.11708 31.5511 5.68389C31.4392 6.2503 31.8079 6.80043 32.3747 6.91232C33.3834 7.1117 34.4128 7.39613 35.4329 7.75786C35.6222 7.82541 35.8264 7.83639 36.0217 7.79041C36.0567 7.78228 39.5076 6.99777 40.2645 9.12789C40.4252 9.57915 40.8736 9.86316 41.3505 9.8184C41.3834 9.81515 44.6769 9.52584 46.5519 11.2324C47.2115 11.833 47.6188 12.6077 47.7852 13.583C46.3745 13.6506 44.174 14.1462 43.0285 16.4142C42.7681 16.9298 42.9744 17.5585 43.49 17.8193C43.6413 17.8954 43.8025 17.9316 43.9608 17.9316C44.3428 17.9316 44.7111 17.7216 44.895 17.3574C45.8593 15.4491 48.2556 15.6407 48.6906 15.6928C49.0771 15.8198 51.37 16.6372 51.2776 18.0386C51.2504 18.4536 51.4717 18.8455 51.8416 19.0363C51.8453 19.0379 52.2163 19.2467 52.5382 19.6849C52.961 20.2603 53.0997 20.9671 52.9524 21.7882L52.882 21.8818C51.2589 22.06 48.8179 23.0813 48.4847 26.1005C48.4216 26.6746 48.8354 27.1914 49.4095 27.2549C49.4486 27.2589 49.4873 27.261 49.5255 27.261C50.0516 27.261 50.5045 26.8651 50.5635 26.33C50.7747 24.4167 52.4178 24.0363 53.1262 23.9614C57.7083 27.3224 54.4738 35.1605 54.2598 35.6631C53.1254 37.8318 51.7016 38.9414 49.917 39.0428C49.152 38.4035 47.1492 36.9822 43.6491 36.1436C43.0871 36.0089 42.5228 36.3552 42.3881 36.9167C42.2538 37.4786 42.5997 38.043 43.1616 38.1773C46.1523 38.8938 47.8597 40.071 48.4895 40.5772C48.4814 40.8641 48.4436 41.1477 48.374 41.4231C47.6302 44.378 43.6308 45.9279 39.4584 44.8773C38.7679 44.7032 38.099 44.4635 37.4703 44.1644C37.161 44.0171 36.7993 44.031 36.5019 44.201C36.2048 44.3707 36.0095 44.6759 35.9794 45.0169C35.8598 46.3706 35.918 47.6747 36.1515 48.9076L33.4058 49.3642C33.2886 48.9483 33.171 48.4621 33.0436 47.9335C32.43 45.3924 31.5438 41.7267 28.938 38.7189C31.1072 38.1907 33.1942 37.842 35.1611 37.6805C35.7369 37.6333 36.1654 37.1283 36.1178 36.5529C36.0706 35.9772 35.5652 35.5495 34.9902 35.5963C32.3906 35.8095 29.6033 36.3296 26.7045 37.1413C24.0471 37.501 22.1859 37.357 21.9776 37.3387C17.4447 36.6575 16.1789 33.9187 16.4734 31.7772C16.5206 31.4341 16.3949 31.0899 16.1378 30.858C15.8806 30.626 15.5258 30.5365 15.1893 30.6187L14.4312 30.8043C13.1092 30.7388 9.80476 30.2269 8.31755 28.4951C7.67139 27.7423 7.42399 26.8333 7.56193 25.716C7.61483 25.2847 7.39592 24.8656 7.0118 24.6633C7.00733 24.6609 6.56218 24.3927 6.45272 23.9203C6.32251 23.3576 6.70012 22.6838 7.03988 22.2179C7.24536 21.9359 7.29663 21.5697 7.1766 21.2421C7.16846 21.2201 6.39738 18.9956 7.27792 17.1491C7.76782 16.1217 8.70695 15.364 10.0697 14.8977C10.4643 14.7626 10.7402 14.4131 10.7728 13.9973C10.774 13.9838 10.9071 12.6577 11.873 11.9375C12.5404 11.4403 13.5031 11.3129 14.7339 11.5591C15.0131 11.6145 15.3024 11.5546 15.5359 11.3923C15.7695 11.2299 15.927 10.9797 15.9717 10.6985C15.9754 10.6757 16.4437 8.49964 20.5237 8.42233C21.1426 9.26746 22.5082 11.4879 21.495 13.4772C21.233 13.992 21.438 14.6219 21.9524 14.8839C22.1045 14.9612 22.2665 14.9978 22.426 14.9978C22.8068 14.9978 23.1743 14.7891 23.359 14.4265C23.7358 13.6864 23.9091 12.9442 23.9449 12.2277C24.5093 11.9876 25.3882 11.7296 26.0897 11.9384C26.5458 12.0734 26.8966 12.4047 27.1623 12.9499C27.3434 13.3218 27.7157 13.5379 28.1035 13.5379C28.2569 13.5379 28.4131 13.5037 28.5608 13.4317C29.08 13.179 29.2957 12.5528 29.0426 12.0336C28.5205 10.9626 27.7055 10.2363 26.685 9.93315C25.5982 9.61048 24.4922 9.81637 23.6739 10.0922C23.4009 9.15882 22.9716 8.34787 22.594 7.75094C23.0864 7.53651 23.7513 7.28667 24.5699 7.07142C25.1286 6.92494 25.4627 6.35284 25.3158 5.79457C25.1689 5.23549 24.5968 4.90224 24.0385 5.04872C22.3857 5.48288 21.2533 6.04766 20.7512 6.32802C16.5158 6.32883 14.8784 8.179 14.2619 9.37692C12.8024 9.23898 11.5732 9.5413 10.5982 10.279C9.46175 11.1388 8.99625 12.3762 8.80908 13.1403C7.20223 13.8133 6.05355 14.857 5.3899 16.2486C4.42677 18.2689 4.79786 20.4426 5.05217 21.4268C4.41253 22.4592 4.19809 23.4548 4.41538 24.3923C4.59929 25.1874 5.0538 25.7404 5.43669 26.083C5.38827 27.5316 5.82203 28.7991 6.73064 29.8574C8.98323 32.4799 13.473 32.8465 14.3596 32.8937C14.5879 35.8099 16.8079 38.6875 21.6989 39.4114C21.7143 39.4139 21.7302 39.4159 21.7461 39.4175C21.7896 39.422 22.3312 39.4749 23.2463 39.4749C24.0772 39.4749 25.2173 39.431 26.5719 39.2666C29.4568 41.9936 30.3516 45.6944 31.0104 48.4243C31.2504 49.4179 31.4575 50.2765 31.7277 50.9381C31.8901 51.336 32.2762 51.5883 32.6953 51.5883C32.7523 51.5883 32.8097 51.5838 32.8674 51.5741L37.5993 50.7867C37.8939 50.7375 38.1535 50.5649 38.3126 50.3123C38.4717 50.0596 38.5152 49.7507 38.4318 49.4639C38.1738 48.574 38.0339 47.6263 38.0131 46.6327C38.3199 46.7352 38.632 46.8259 38.9473 46.9053C41.4559 47.5368 44.01 47.3997 46.1397 46.5187C48.3768 45.5934 49.8905 43.965 50.402 41.9338C50.4724 41.653 50.5216 41.3674 50.5509 41.0789C52.336 40.8307 54.4848 39.7683 56.1323 36.5949C56.1421 36.5761 56.1511 36.5574 56.1596 36.5383C56.2048 36.437 57.2704 34.0176 57.5821 31.0671C57.9671 27.4209 57.0328 24.5461 54.873 22.6793Z" fill="#5DC4FF"/>
<path d="M28.6582 19.6064C28.6692 19.667 28.941 21.1083 29.9408 22.5226C30.1792 22.86 30.4714 23.2123 30.8245 23.5501C30.6366 24.6243 28.9935 25.2123 28.9548 25.2257C28.4096 25.4116 28.1174 26.0037 28.3014 26.5497C28.4487 26.9863 28.8556 27.2618 29.2922 27.2618C29.4032 27.2618 29.516 27.2439 29.6266 27.2065C30.5934 26.8805 31.998 26.0688 32.6194 24.7643C33.4324 25.1313 34.4126 25.3689 35.5897 25.3689C35.6646 25.3689 35.7407 25.3677 35.8172 25.3661C36.3946 25.351 36.8507 24.8713 36.8357 24.2939C36.8214 23.7254 36.3563 23.2746 35.7908 23.2746C35.7818 23.2746 35.7728 23.275 35.7639 23.275C31.5679 23.3804 30.7501 19.4095 30.7147 19.2272C30.6093 18.6612 30.0657 18.286 29.4989 18.3902C28.9308 18.4935 28.5544 19.0384 28.6582 19.6064Z" fill="#5DC4FF"/>
<path d="M41.4075 28.7885C43.2231 25.6159 42.5061 23.1627 41.5853 21.6633C40.6124 20.08 39.2106 19.2459 39.1516 19.2113C38.6548 18.9199 38.0188 19.086 37.7251 19.5807C37.4313 20.0759 37.5953 20.7164 38.0888 21.0126C38.0994 21.0187 39.1488 21.6567 39.8389 22.8172C40.7101 24.2821 40.6267 25.9414 39.5919 27.7497C39.305 28.251 39.4792 28.8898 39.9805 29.1767C40.1441 29.2707 40.3227 29.315 40.4985 29.315C40.8618 29.315 41.2142 29.1262 41.4075 28.7885Z" fill="#5DC4FF"/>
<path d="M52.491 31.2328C52.961 30.8971 53.0701 30.244 52.7344 29.774C52.3987 29.3041 51.7456 29.195 51.2756 29.5307C50.2559 30.2591 49.3282 30.5329 48.5181 30.3441C47.2974 30.0605 46.604 28.8072 46.5877 28.7779C46.3192 28.2697 45.6905 28.0736 45.1799 28.3397C44.6676 28.607 44.469 29.2385 44.7364 29.7504C44.7774 29.829 45.6836 31.5294 47.4931 32.213C47.1692 33.4923 46.9629 35.7498 48.8534 37.3306C49.0491 37.4941 49.2867 37.5743 49.5235 37.5743C49.8226 37.5743 50.1192 37.4465 50.3263 37.1995C50.6966 36.7564 50.638 36.0968 50.1949 35.7262C49.0409 34.761 49.3652 33.1773 49.5927 32.4604C50.5371 32.3448 51.5072 31.9355 52.491 31.2328Z" fill="#5DC4FF"/>
<path d="M21.7042 24.5168C21.6318 23.9439 21.1085 23.5391 20.5352 23.6111C19.9623 23.6835 19.5566 24.2072 19.6295 24.7801C19.8109 26.2112 18.6883 27.2528 18.0234 27.7358C16.3499 26.9074 14.4757 27.2231 14.3825 27.2394C13.8157 27.3395 13.4385 27.8791 13.5361 28.4463C13.6338 29.0135 14.1742 29.3948 14.7418 29.2999C14.7597 29.2967 16.5248 29.0139 17.5811 29.9294C18.1842 30.4523 18.4759 31.3267 18.4478 32.5283C18.4344 33.1057 18.8918 33.5846 19.4691 33.598C19.4773 33.5984 19.4854 33.5984 19.494 33.5984C20.06 33.5984 20.5255 33.1464 20.5389 32.5771C20.5718 31.1709 20.2724 30.0136 19.6478 29.1217C20.6728 28.2709 21.9842 26.7247 21.7042 24.5168Z" fill="#5DC4FF"/>
<path d="M11.8703 19.0347C11.7568 19.3065 11.5843 19.5498 11.3666 19.7712C10.7993 20.3494 10.0873 20.5642 10.0604 20.5724C9.50703 20.7258 9.18029 21.297 9.33003 21.8525C9.45576 22.3188 9.87812 22.626 10.3387 22.626C10.4291 22.626 10.5206 22.6142 10.6122 22.5894C10.6781 22.5715 11.9916 22.2048 13.006 21.0769C13.7042 21.5953 14.5245 21.8659 15.4234 21.8659C15.6736 21.8659 15.9295 21.8451 16.1908 21.8028C17.3757 21.612 18.2631 21.0533 18.3604 20.9902C18.845 20.6761 18.9833 20.0287 18.6692 19.5441C18.3551 19.0595 17.7077 18.9212 17.2227 19.2353C17.217 19.2389 16.6082 19.617 15.8583 19.7382C15.1048 19.8599 14.5099 19.6882 14.0195 19.2015C14.2564 18.3002 14.2279 17.296 13.9304 16.201C13.7795 15.6436 13.2053 15.3144 12.6475 15.4658C12.09 15.6171 11.7608 16.1913 11.9122 16.7487C12.1523 17.6341 12.1458 18.3747 11.8898 18.9891C11.8833 19.0042 11.8768 19.0192 11.8703 19.0347Z" fill="#5DC4FF"/>
<path d="M36.3429 10.1392C34.5765 9.09139 32.5465 9.63256 32.4611 9.65616C31.9044 9.80957 31.5773 10.3853 31.7307 10.942C31.8837 11.4986 32.4603 11.8253 33.0165 11.6728C33.0287 11.6691 34.282 11.3481 35.2756 11.9377C35.8668 12.2884 36.2749 12.9285 36.4894 13.8395C36.6029 14.3213 37.0322 14.646 37.5066 14.646C37.586 14.646 37.6661 14.6366 37.7467 14.6179C38.309 14.4857 38.6578 13.9225 38.5251 13.3606C38.1756 11.875 37.4415 10.791 36.3429 10.1392Z" fill="#5DC4FF"/>
<path d="M32.5547 29.8558C31.8096 31.1359 30.733 31.8215 29.3552 31.8935C28.2484 31.9509 27.3362 31.5941 27.3138 31.5847C26.7807 31.3666 26.172 31.6205 25.9519 32.1527C25.7309 32.6866 25.9844 33.2981 26.5179 33.5187C26.6408 33.5696 27.702 33.9915 29.1066 33.9915C29.1928 33.9915 29.2807 33.9899 29.3698 33.9862C30.8628 33.9297 32.9412 33.3494 34.3625 30.9076C34.653 30.4088 34.4838 29.7683 33.9845 29.4778C33.4856 29.1872 32.8452 29.3565 32.5547 29.8558Z" fill="#5DC4FF"/>
<path d="M40.1265 35.9889C39.8795 35.6206 39.4173 35.444 38.986 35.5604C38.5689 35.6723 38.2601 36.0381 38.2161 36.4674C38.1718 36.9011 38.4163 37.3296 38.8098 37.5147C39.1935 37.695 39.6614 37.6246 39.9711 37.3333C40.3413 36.9854 40.4081 36.4096 40.1265 35.9889Z" fill="#5DC4FF"/>
<path d="M27.4776 5.90168C27.6437 6.3037 28.0591 6.56737 28.4933 6.54662C28.9185 6.52587 29.2961 6.24063 29.4328 5.8378C29.5716 5.43049 29.4393 4.96744 29.1069 4.694C28.7557 4.4051 28.2414 4.37906 27.8634 4.63215C27.4545 4.906 27.2893 5.44555 27.4776 5.90168Z" fill="#5DC4FF"/>
</g>
<g clip-path="url(#clip1_2020_424)">
<path d="M54.873 22.6793C54.9055 22.6113 54.9304 22.5401 54.9475 22.4665C55.522 19.9876 54.3538 18.323 53.3475 17.5344C53.1193 15.6753 51.3667 14.486 49.9324 13.9118C49.7863 12.1605 49.1215 10.7384 47.95 9.6768C46.0327 7.93975 43.2857 7.70537 41.9425 7.70537C41.9287 7.70537 41.9153 7.70537 41.9014 7.70537C40.5928 5.46864 37.5985 5.36529 35.8525 5.68959C34.8283 5.33966 33.7956 5.06134 32.7796 4.86073C32.2136 4.74924 31.663 5.11708 31.5511 5.68389C31.4392 6.2503 31.8079 6.80043 32.3747 6.91232C33.3834 7.1117 34.4128 7.39613 35.4329 7.75786C35.6222 7.82541 35.8264 7.83639 36.0217 7.79041C36.0567 7.78228 39.5076 6.99777 40.2645 9.12789C40.4252 9.57915 40.8736 9.86316 41.3505 9.8184C41.3834 9.81515 44.6769 9.52584 46.5519 11.2324C47.2115 11.833 47.6188 12.6077 47.7852 13.583C46.3745 13.6506 44.174 14.1462 43.0285 16.4142C42.7681 16.9298 42.9744 17.5585 43.49 17.8193C43.6413 17.8954 43.8025 17.9316 43.9608 17.9316C44.3428 17.9316 44.7111 17.7216 44.895 17.3574C45.8593 15.4491 48.2556 15.6407 48.6906 15.6928C49.0771 15.8198 51.37 16.6372 51.2776 18.0386C51.2504 18.4536 51.4717 18.8455 51.8416 19.0363C51.8453 19.0379 52.2163 19.2467 52.5382 19.6849C52.961 20.2603 53.0997 20.9671 52.9524 21.7882L52.882 21.8818C51.2589 22.06 48.8179 23.0813 48.4847 26.1005C48.4216 26.6746 48.8354 27.1914 49.4095 27.2549C49.4486 27.2589 49.4873 27.261 49.5255 27.261C50.0516 27.261 50.5045 26.8651 50.5635 26.33C50.7747 24.4167 52.4178 24.0363 53.1262 23.9614C57.7083 27.3224 54.4738 35.1605 54.2598 35.6631C53.1254 37.8318 51.7016 38.9414 49.917 39.0428C49.152 38.4035 47.1492 36.9822 43.6491 36.1436C43.0871 36.0089 42.5228 36.3552 42.3881 36.9167C42.2538 37.4786 42.5997 38.043 43.1616 38.1773C46.1523 38.8938 47.8597 40.071 48.4895 40.5772C48.4814 40.8641 48.4436 41.1477 48.374 41.4231C47.6302 44.378 43.6308 45.9279 39.4584 44.8773C38.7679 44.7032 38.099 44.4635 37.4703 44.1644C37.161 44.0171 36.7993 44.031 36.5019 44.201C36.2048 44.3707 36.0095 44.6759 35.9794 45.0169C35.8598 46.3706 35.918 47.6747 36.1515 48.9076L33.4058 49.3642C33.2886 48.9483 33.171 48.4621 33.0436 47.9335C32.43 45.3924 31.5438 41.7267 28.938 38.7189C31.1072 38.1907 33.1942 37.842 35.1611 37.6805C35.7369 37.6333 36.1654 37.1283 36.1178 36.5529C36.0706 35.9772 35.5652 35.5495 34.9902 35.5963C32.3906 35.8095 29.6033 36.3296 26.7045 37.1413C24.0471 37.501 22.1859 37.357 21.9776 37.3387C17.4447 36.6575 16.1789 33.9187 16.4734 31.7772C16.5206 31.4341 16.3949 31.0899 16.1378 30.858C15.8806 30.626 15.5258 30.5365 15.1893 30.6187L14.4312 30.8043C13.1092 30.7388 9.80476 30.2269 8.31755 28.4951C7.67139 27.7423 7.42399 26.8333 7.56193 25.716C7.61483 25.2847 7.39592 24.8656 7.0118 24.6633C7.00733 24.6609 6.56218 24.3927 6.45272 23.9203C6.32251 23.3576 6.70012 22.6838 7.03988 22.2179C7.24536 21.9359 7.29663 21.5697 7.1766 21.2421C7.16846 21.2201 6.39738 18.9956 7.27792 17.1491C7.76782 16.1217 8.70695 15.364 10.0697 14.8977C10.4643 14.7626 10.7402 14.4131 10.7728 13.9973C10.774 13.9838 10.9071 12.6577 11.873 11.9375C12.5404 11.4403 13.5031 11.3129 14.7339 11.5591C15.0131 11.6145 15.3024 11.5546 15.5359 11.3923C15.7695 11.2299 15.927 10.9797 15.9717 10.6985C15.9754 10.6757 16.4437 8.49964 20.5237 8.42233C21.1426 9.26746 22.5082 11.4879 21.495 13.4772C21.233 13.992 21.438 14.6219 21.9524 14.8839C22.1045 14.9612 22.2665 14.9978 22.426 14.9978C22.8068 14.9978 23.1743 14.7891 23.359 14.4265C23.7358 13.6864 23.9091 12.9442 23.9449 12.2277C24.5093 11.9876 25.3882 11.7296 26.0897 11.9384C26.5458 12.0734 26.8966 12.4047 27.1623 12.9499C27.3434 13.3218 27.7157 13.5379 28.1035 13.5379C28.2569 13.5379 28.4131 13.5037 28.5608 13.4317C29.08 13.179 29.2957 12.5528 29.0426 12.0336C28.5205 10.9626 27.7055 10.2363 26.685 9.93315C25.5982 9.61048 24.4922 9.81637 23.6739 10.0922C23.4009 9.15882 22.9716 8.34787 22.594 7.75094C23.0864 7.53651 23.7513 7.28667 24.5699 7.07142C25.1286 6.92494 25.4627 6.35284 25.3158 5.79457C25.1689 5.23549 24.5968 4.90224 24.0385 5.04872C22.3857 5.48288 21.2533 6.04766 20.7512 6.32802C16.5158 6.32883 14.8784 8.179 14.2619 9.37692C12.8024 9.23898 11.5732 9.5413 10.5982 10.279C9.46175 11.1388 8.99625 12.3762 8.80908 13.1403C7.20223 13.8133 6.05355 14.857 5.3899 16.2486C4.42677 18.2689 4.79786 20.4426 5.05217 21.4268C4.41253 22.4592 4.19809 23.4548 4.41538 24.3923C4.59929 25.1874 5.0538 25.7404 5.43669 26.083C5.38827 27.5316 5.82203 28.7991 6.73064 29.8574C8.98323 32.4799 13.473 32.8465 14.3596 32.8937C14.5879 35.8099 16.8079 38.6875 21.6989 39.4114C21.7143 39.4139 21.7302 39.4159 21.7461 39.4175C21.7896 39.422 22.3312 39.4749 23.2463 39.4749C24.0772 39.4749 25.2173 39.431 26.5719 39.2666C29.4568 41.9936 30.3516 45.6944 31.0104 48.4243C31.2504 49.4179 31.4575 50.2765 31.7277 50.9381C31.8901 51.336 32.2762 51.5883 32.6953 51.5883C32.7523 51.5883 32.8097 51.5838 32.8674 51.5741L37.5993 50.7867C37.8939 50.7375 38.1535 50.5649 38.3126 50.3123C38.4717 50.0596 38.5152 49.7507 38.4318 49.4639C38.1738 48.574 38.0339 47.6263 38.0131 46.6327C38.3199 46.7352 38.632 46.8259 38.9473 46.9053C41.4559 47.5368 44.01 47.3997 46.1397 46.5187C48.3768 45.5934 49.8905 43.965 50.402 41.9338C50.4724 41.653 50.5216 41.3674 50.5509 41.0789C52.336 40.8307 54.4848 39.7683 56.1323 36.5949C56.1421 36.5761 56.1511 36.5574 56.1596 36.5383C56.2048 36.437 57.2704 34.0176 57.5821 31.0671C57.9671 27.4209 57.0328 24.5461 54.873 22.6793Z" fill="white"/>
<path d="M28.6582 19.6064C28.6692 19.667 28.941 21.1083 29.9408 22.5226C30.1792 22.86 30.4714 23.2123 30.8245 23.5501C30.6366 24.6243 28.9935 25.2123 28.9548 25.2257C28.4096 25.4116 28.1174 26.0037 28.3014 26.5497C28.4487 26.9863 28.8556 27.2618 29.2922 27.2618C29.4032 27.2618 29.516 27.2439 29.6266 27.2065C30.5934 26.8805 31.998 26.0688 32.6194 24.7643C33.4324 25.1313 34.4126 25.3689 35.5897 25.3689C35.6646 25.3689 35.7407 25.3677 35.8172 25.3661C36.3946 25.351 36.8507 24.8713 36.8357 24.2939C36.8214 23.7254 36.3563 23.2746 35.7908 23.2746C35.7818 23.2746 35.7728 23.275 35.7639 23.275C31.5679 23.3804 30.7501 19.4095 30.7147 19.2272C30.6093 18.6612 30.0657 18.286 29.4989 18.3902C28.9308 18.4935 28.5544 19.0384 28.6582 19.6064Z" fill="white"/>
<path d="M41.4075 28.7885C43.2231 25.6159 42.5061 23.1627 41.5853 21.6633C40.6124 20.08 39.2106 19.2459 39.1516 19.2113C38.6548 18.9199 38.0188 19.086 37.7251 19.5807C37.4313 20.0759 37.5953 20.7164 38.0888 21.0126C38.0994 21.0187 39.1488 21.6567 39.8389 22.8172C40.7101 24.2821 40.6267 25.9414 39.5919 27.7497C39.305 28.251 39.4792 28.8898 39.9805 29.1767C40.1441 29.2707 40.3227 29.315 40.4985 29.315C40.8618 29.315 41.2142 29.1262 41.4075 28.7885Z" fill="white"/>
<path d="M52.491 31.2328C52.961 30.8971 53.0701 30.244 52.7344 29.774C52.3987 29.3041 51.7456 29.195 51.2756 29.5307C50.2559 30.2591 49.3282 30.5329 48.5181 30.3441C47.2974 30.0605 46.604 28.8072 46.5877 28.7779C46.3192 28.2697 45.6905 28.0736 45.1799 28.3397C44.6676 28.607 44.469 29.2385 44.7364 29.7504C44.7774 29.829 45.6836 31.5294 47.4931 32.213C47.1692 33.4923 46.9629 35.7498 48.8534 37.3306C49.0491 37.4941 49.2867 37.5743 49.5235 37.5743C49.8226 37.5743 50.1192 37.4465 50.3263 37.1995C50.6966 36.7564 50.638 36.0968 50.1949 35.7262C49.0409 34.761 49.3652 33.1773 49.5927 32.4604C50.5371 32.3448 51.5072 31.9355 52.491 31.2328Z" fill="white"/>
<path d="M21.7042 24.5168C21.6318 23.9439 21.1085 23.5391 20.5352 23.6111C19.9623 23.6835 19.5566 24.2072 19.6295 24.7801C19.8109 26.2112 18.6883 27.2528 18.0234 27.7358C16.3499 26.9074 14.4757 27.2231 14.3825 27.2394C13.8157 27.3395 13.4385 27.8791 13.5361 28.4463C13.6338 29.0135 14.1742 29.3948 14.7418 29.2999C14.7597 29.2967 16.5248 29.0139 17.5811 29.9294C18.1842 30.4523 18.4759 31.3267 18.4478 32.5283C18.4344 33.1057 18.8918 33.5846 19.4691 33.598C19.4773 33.5984 19.4854 33.5984 19.494 33.5984C20.06 33.5984 20.5255 33.1464 20.5389 32.5771C20.5718 31.1709 20.2724 30.0136 19.6478 29.1217C20.6728 28.2709 21.9842 26.7247 21.7042 24.5168Z" fill="white"/>
<path d="M11.8703 19.0347C11.7568 19.3065 11.5843 19.5498 11.3666 19.7712C10.7993 20.3494 10.0873 20.5642 10.0604 20.5724C9.50703 20.7258 9.18029 21.297 9.33003 21.8525C9.45576 22.3188 9.87812 22.626 10.3387 22.626C10.4291 22.626 10.5206 22.6142 10.6122 22.5894C10.6781 22.5715 11.9916 22.2048 13.006 21.0769C13.7042 21.5953 14.5245 21.8659 15.4234 21.8659C15.6736 21.8659 15.9295 21.8451 16.1908 21.8028C17.3757 21.612 18.2631 21.0533 18.3604 20.9902C18.845 20.6761 18.9833 20.0287 18.6692 19.5441C18.3551 19.0595 17.7077 18.9212 17.2227 19.2353C17.217 19.2389 16.6082 19.617 15.8583 19.7382C15.1048 19.8599 14.5099 19.6882 14.0195 19.2015C14.2564 18.3002 14.2279 17.296 13.9304 16.201C13.7795 15.6436 13.2053 15.3144 12.6475 15.4658C12.09 15.6171 11.7608 16.1913 11.9122 16.7487C12.1523 17.6341 12.1458 18.3747 11.8898 18.9891C11.8833 19.0042 11.8768 19.0192 11.8703 19.0347Z" fill="white"/>
<path d="M36.3429 10.1392C34.5765 9.09139 32.5465 9.63256 32.4611 9.65616C31.9044 9.80957 31.5773 10.3853 31.7307 10.942C31.8837 11.4986 32.4603 11.8253 33.0165 11.6728C33.0287 11.6691 34.282 11.3481 35.2756 11.9377C35.8668 12.2884 36.2749 12.9285 36.4894 13.8395C36.6029 14.3213 37.0322 14.646 37.5066 14.646C37.586 14.646 37.6661 14.6366 37.7467 14.6179C38.309 14.4857 38.6578 13.9225 38.5251 13.3606C38.1756 11.875 37.4415 10.791 36.3429 10.1392Z" fill="white"/>
<path d="M32.5547 29.8558C31.8096 31.1359 30.733 31.8215 29.3552 31.8935C28.2484 31.9509 27.3362 31.5941 27.3138 31.5847C26.7807 31.3666 26.172 31.6205 25.9519 32.1527C25.7309 32.6866 25.9844 33.2981 26.5179 33.5187C26.6408 33.5696 27.702 33.9915 29.1066 33.9915C29.1928 33.9915 29.2807 33.9899 29.3698 33.9862C30.8628 33.9297 32.9412 33.3494 34.3625 30.9076C34.653 30.4088 34.4838 29.7683 33.9845 29.4778C33.4856 29.1872 32.8452 29.3565 32.5547 29.8558Z" fill="white"/>
<path d="M40.1265 35.9889C39.8795 35.6206 39.4173 35.444 38.986 35.5604C38.5689 35.6723 38.2601 36.0381 38.2161 36.4674C38.1718 36.9011 38.4163 37.3296 38.8098 37.5147C39.1935 37.695 39.6614 37.6246 39.9711 37.3333C40.3413 36.9854 40.4081 36.4096 40.1265 35.9889Z" fill="white"/>
<path d="M27.4776 5.90168C27.6437 6.3037 28.0591 6.56737 28.4933 6.54662C28.9185 6.52587 29.2961 6.24063 29.4328 5.8378C29.5716 5.43049 29.4393 4.96744 29.1069 4.694C28.7557 4.4051 28.2414 4.37906 27.8634 4.63215C27.4545 4.906 27.2893 5.44555 27.4776 5.90168Z" fill="white"/>
</g>
<defs>
<filter id="filter0_f_2020_424" x="0.333252" y="-2.66675" width="61.3333" height="61.3333" filterUnits="userSpaceOnUse" color-interpolation-filters="sRGB">
<feFlood flood-opacity="0" result="BackgroundImageFix"/>
<feBlend mode="normal" in="SourceGraphic" in2="BackgroundImageFix" result="shape"/>
<feGaussianBlur stdDeviation="2" result="effect1_foregroundBlur_2020_424"/>
</filter>
<clipPath id="clip0_2020_424">
<rect width="53.3333" height="53.3333" fill="white" transform="translate(4.33325 1.33325)"/>
</clipPath>
<clipPath id="clip1_2020_424">
<rect width="53.3333" height="53.3333" fill="white" transform="translate(4.33325 1.33325)"/>
</clipPath>
</defs>
</svg>
