<svg width="85" height="85" viewBox="0 0 85 85" fill="none" xmlns="http://www.w3.org/2000/svg">
<g clip-path="url(#clip0_159_26812)">
<path d="M41.6763 19.0955H43.793C45.347 19.0955 46.6164 17.8544 46.6621 16.3113C48.2052 16.2656 49.4465 14.9962 49.4465 13.4422V11.3253C49.4465 9.77132 48.2052 8.50174 46.6621 8.456C46.6164 6.91297 45.3468 5.67181 43.793 5.67181H41.6763C40.1223 5.67181 38.8529 6.91297 38.8071 8.456C37.2641 8.50174 36.0229 9.77132 36.0229 11.3251V13.442C36.0229 14.996 37.2641 16.2654 38.8071 16.3112C38.8527 17.8544 40.1223 19.0955 41.6763 19.0955ZM38.4731 13.442V11.3253C38.4731 11.0937 38.6616 10.9052 38.8934 10.9052H39.9439C40.6676 10.9052 41.2561 10.3164 41.2561 9.59294V8.54242C41.2561 8.31078 41.4446 8.12227 41.6763 8.12227H43.793C44.0246 8.12227 44.2131 8.31078 44.2131 8.54242V9.59294C44.2131 10.3166 44.8017 10.9052 45.5254 10.9052H46.5759C46.8077 10.9052 46.9962 11.0937 46.9962 11.3255V13.4422C46.9962 13.6738 46.8077 13.8623 46.576 13.8623H45.5254C44.8017 13.8623 44.2131 14.4511 44.2131 15.1746V16.2251C44.2131 16.4567 44.0246 16.6454 43.793 16.6454H41.6763C41.4446 16.6454 41.2561 16.4569 41.2561 16.2252V15.1747C41.2561 14.4511 40.6674 13.8625 39.9439 13.8625H38.8934C38.6616 13.8623 38.4731 13.6738 38.4731 13.442Z" fill="white"/>
<path d="M67.1832 55.665L51.9153 49.9395C51.515 49.7894 51.246 49.4014 51.246 48.9738V43.5609C54.9954 41.0617 57.6225 37.0063 58.196 32.3245C61.1063 32.094 63.4047 29.6537 63.4047 26.685C63.4047 23.7566 61.1687 21.341 58.3146 21.0548V9.50504C58.3146 7.30778 57.1494 5.23189 55.2738 4.08744L52.2944 2.26932C50.7528 1.32873 48.9836 0.831482 47.1779 0.831482L37.8148 0.831482C36.0091 0.831482 34.2398 1.32873 32.6982 2.26932L29.7187 4.08744C27.8431 5.23189 26.678 7.30778 26.678 9.50504L26.678 21.0409C23.737 21.24 21.4048 23.6945 21.4048 26.6852C21.4048 29.7164 23.8006 32.1982 26.7981 32.3374C27.3749 37.0137 30.0006 41.064 33.7466 43.5609L33.7466 48.9738C33.7466 49.4013 33.4778 49.7894 33.0774 49.9395L17.8094 55.665C12.4126 57.689 8.78662 62.9212 8.78662 68.6848V76.2178C8.78662 76.8944 9.33516 77.4429 10.0118 77.4429C10.6884 77.4429 11.2369 76.8944 11.2369 76.2178V68.6848C11.2369 63.9367 14.224 59.6265 18.6696 57.9593L23.4007 56.1851V64.0251C21.3122 64.5696 19.7662 66.4715 19.7662 68.728C19.7662 71.4077 21.9462 73.5878 24.6258 73.5878C27.3055 73.5878 29.4854 71.4077 29.4854 68.728C29.4854 66.4715 27.9393 64.5696 25.851 64.0251V55.2663L26.5514 55.0036C26.5843 55.034 26.6187 55.0634 26.6557 55.0907L29.688 57.3402C33.4203 60.109 37.8493 61.5725 42.4965 61.5725C47.1434 61.5725 51.5727 60.109 55.3048 57.3402L58.3427 55.0866C58.3778 55.0606 58.4108 55.0328 58.4424 55.0041L60.1378 55.6399V63.0012C57.0802 63.2067 54.655 65.7581 54.655 68.8671V78.5701C54.655 79.2467 55.2034 79.7952 55.8802 79.7952H57.746C58.4228 79.7952 58.9711 79.2467 58.9711 78.5701C58.9711 77.8935 58.4228 77.3449 57.746 77.3449H57.1053V68.8671C57.1053 66.9754 58.6443 65.4365 60.5357 65.4365H62.0508C63.9423 65.4365 65.4812 66.9754 65.4812 68.8671V77.3449H64.847C64.1703 77.3449 63.6218 77.8935 63.6218 78.5701C63.6218 79.2467 64.1703 79.7952 64.847 79.7952H66.7064C67.3832 79.7952 67.9315 79.2467 67.9315 78.5701V68.8671C67.9315 65.8057 65.5798 63.2843 62.5881 63.0118V56.5589L66.3228 57.9595C70.7687 59.6267 73.7557 63.9369 73.7557 68.6851V81.6586C73.7557 81.6875 73.7321 81.7112 73.7033 81.7112L11.2895 81.7112C11.2606 81.7112 11.2369 81.6875 11.2369 81.6586V81.1184C11.2369 80.4418 10.6884 79.8932 10.0118 79.8932C9.33516 79.8932 8.78662 80.4418 8.78662 81.1184V81.6586C8.78662 83.0386 9.90951 84.1615 11.2895 84.1615L73.7031 84.1615C75.0831 84.1615 76.2059 83.0386 76.2059 81.6586V68.6849C76.2059 62.9212 72.5799 57.689 67.1832 55.665ZM27.0351 68.728C27.0351 70.0566 25.9544 71.1375 24.6258 71.1375C23.2973 71.1375 22.2165 70.0566 22.2165 68.728C22.2165 67.3995 23.2973 66.3187 24.6258 66.3187C25.9544 66.3187 27.0351 67.3995 27.0351 68.728ZM60.9544 26.6854C60.9544 28.2603 59.8131 29.5708 58.3146 29.8405V23.5302C59.8131 23.7997 60.9544 25.1105 60.9544 26.6854ZM23.855 26.6854C23.855 25.0468 25.0902 23.6937 26.6779 23.5023V29.8686C25.0902 29.677 23.855 28.3238 23.855 26.6854ZM29.1283 30.3897V23.4908H35.841C36.5176 23.4908 37.0661 22.9423 37.0661 22.2657C37.0661 21.5891 36.5176 21.0405 35.841 21.0405H29.1283L29.1283 9.50504C29.1283 8.15607 29.8437 6.88159 30.9951 6.17901L33.9747 4.36105C35.1316 3.65504 36.4595 3.28178 37.8148 3.28178L47.1779 3.28178C48.5332 3.28178 49.8611 3.65504 51.0181 4.36105L53.9975 6.17901C55.149 6.88159 55.8643 8.15607 55.8643 9.50504V21.0405L40.7416 21.0405C40.065 21.0405 39.5164 21.5891 39.5164 22.2657C39.5164 22.9423 40.065 23.4908 40.7416 23.4908L55.8643 23.4908L55.8643 30.3897C55.8643 37.7609 49.8675 43.7577 42.4963 43.7577C35.1252 43.7577 29.1283 37.7609 29.1283 30.3897ZM53.8448 55.3725C50.538 57.8257 46.6136 59.1224 42.4963 59.1224C38.3789 59.1224 34.4546 57.8257 31.1479 55.3725L29.2744 53.9827L33.9374 52.234C35.2887 51.7272 36.1968 50.4171 36.1968 48.9739V44.8981C38.1283 45.74 40.2584 46.2082 42.4963 46.2082C44.7341 46.2082 46.8644 45.74 48.7957 44.8981V48.9739C48.7957 50.4171 49.7038 51.7272 51.0549 52.234L55.7181 53.9827L53.8448 55.3725Z" fill="white"/>
</g>
<defs>
<clipPath id="clip0_159_26812">
<rect width="83.33" height="83.33" fill="white" transform="translate(0.831299 0.831482)"/>
</clipPath>
</defs>
</svg>
