<svg width="97" height="97" viewBox="0 0 97 97" fill="none" xmlns="http://www.w3.org/2000/svg">
<path d="M48.5 0.8125C39.0683 0.8125 29.8484 3.60932 22.0063 8.84929C14.1641 14.0893 8.05187 21.537 4.44252 30.2508C0.833162 38.9645 -0.111209 48.5529 1.72882 57.8034C3.56886 67.0538 8.11065 75.5509 14.7799 82.2202C21.4491 88.8894 29.9462 93.4312 39.1967 95.2712C48.4471 97.1112 58.0355 96.1669 66.7492 92.5575C75.463 88.9482 82.9108 82.8359 88.1507 74.9938C93.3907 67.1516 96.1875 57.9317 96.1875 48.5C96.1875 35.8525 91.1633 23.723 82.2202 14.7798C73.277 5.8367 61.1475 0.8125 48.5 0.8125ZM73.8664 51.5486L32.9914 71.9861C32.4719 72.2457 31.8948 72.3681 31.3147 72.3419C30.7346 72.3156 30.1708 72.1414 29.677 71.836C29.1831 71.5305 28.7756 71.1039 28.493 70.5966C28.2104 70.0893 28.0623 69.5182 28.0625 68.9375V28.0625C28.0628 27.4821 28.2114 26.9114 28.4942 26.4046C28.7771 25.8977 29.1847 25.4716 29.6784 25.1665C30.1722 24.8615 30.7357 24.6876 31.3155 24.6615C31.8953 24.6354 32.4722 24.7579 32.9914 25.0173L73.8664 45.4548C74.4314 45.738 74.9065 46.1728 75.2385 46.7106C75.5705 47.2484 75.7464 47.868 75.7464 48.5C75.7464 49.132 75.5705 49.7516 75.2385 50.2894C74.9065 50.8272 74.4314 51.262 73.8664 51.5452" fill="white"/>
</svg>
