<svg width="70" height="83" viewBox="0 0 70 83" fill="none" xmlns="http://www.w3.org/2000/svg">
<path d="M51.2441 49.7923V77.7881C51.2441 80.0528 49.4082 81.8887 47.1435 81.8887H5.10057C2.83586 81.8887 1 80.0528 1 77.7881L1 17.4626C1 15.1979 2.83586 13.3621 5.10057 13.3621L13.6448 13.3621" stroke="white" stroke-width="1.5" stroke-miterlimit="10" stroke-linecap="round" stroke-linejoin="round"/>
<path d="M7.44702 21.2893L7.44702 13.3621H13.6447" stroke="white" stroke-width="1.5" stroke-miterlimit="10" stroke-linecap="round" stroke-linejoin="round"/>
<path d="M44.797 42.3645L44.797 71.903C44.797 73.0037 43.9046 73.896 42.8039 73.896H9.43985C8.33915 73.896 7.44678 73.0037 7.44678 71.903L7.44678 27.0325" stroke="white" stroke-width="1.5" stroke-miterlimit="10" stroke-linecap="round" stroke-linejoin="round"/>
<path d="M33.6061 18.9063H16.5225C14.9334 18.9063 13.645 17.6181 13.645 16.0288L13.645 10.6952C13.645 9.10611 14.9332 7.81775 16.5225 7.81775L34.326 7.81775" stroke="white" stroke-width="1.5" stroke-miterlimit="10" stroke-linecap="round" stroke-linejoin="round"/>
<path d="M51.2442 35.1337C58.228 35.1337 63.8895 29.4722 63.8895 22.4883C63.8895 15.5045 58.228 9.84302 51.2442 9.84302C44.2604 9.84302 38.5989 15.5045 38.5989 22.4883C38.5989 29.4722 44.2604 35.1337 51.2442 35.1337Z" stroke="white" stroke-width="1.5" stroke-miterlimit="10" stroke-linecap="round" stroke-linejoin="round"/>
<path d="M56.0801 19.7858H53.9469V17.6526C53.9469 16.16 52.7368 14.9499 51.2442 14.9499C49.7515 14.9499 48.5415 16.16 48.5415 17.6526V19.7858H46.4083C44.9156 19.7858 43.7056 20.9959 43.7056 22.4885C43.7056 23.9811 44.9156 25.1912 46.4083 25.1912H48.5415V27.3244C48.5415 28.817 49.7515 30.0271 51.2442 30.0271C52.7368 30.0271 53.9469 28.817 53.9469 27.3244V25.1912H56.0801C57.5727 25.1912 58.7828 23.9811 58.7828 22.4885C58.7828 20.9957 57.5727 19.7858 56.0801 19.7858Z" stroke="white" stroke-width="1.5" stroke-miterlimit="10" stroke-linecap="round" stroke-linejoin="round"/>
<path d="M68.882 12.3076V9.9887C68.882 8.31283 67.7369 6.85391 66.109 6.45565L64.6146 6.09011C63.1246 5.72554 61.9158 4.63933 61.3949 3.19652C60.9188 1.87838 59.6677 1 58.2661 1L44.2221 1C42.8206 1 41.5694 1.87838 41.0933 3.19652C40.5722 4.63933 39.3636 5.72554 37.8736 6.09011L36.3792 6.45565C34.7513 6.85391 33.6062 8.31283 33.6062 9.9887V22.2289C33.6062 29.6125 37.0209 36.5813 42.856 41.1057C47.7929 44.9336 54.6951 44.9336 59.6321 41.1057C65.4671 36.5813 68.8818 29.6125 68.8818 22.2289V18.3565" stroke="white" stroke-width="1.5" stroke-miterlimit="10" stroke-linecap="round" stroke-linejoin="round"/>
<path d="M13.6587 28.8044L34.5299 28.8044" stroke="white" stroke-width="1.5" stroke-miterlimit="10" stroke-linecap="round" stroke-linejoin="round"/>
<path d="M13.6587 37.0529H38.5853" stroke="white" stroke-width="1.5" stroke-miterlimit="10" stroke-linecap="round" stroke-linejoin="round"/>
<path d="M25.4858 45.3015H38.5853" stroke="white" stroke-width="1.5" stroke-miterlimit="10" stroke-linecap="round" stroke-linejoin="round"/>
<path d="M13.6587 45.3015H19.3279" stroke="white" stroke-width="1.5" stroke-miterlimit="10" stroke-linecap="round" stroke-linejoin="round"/>
<path d="M13.6587 53.5499H38.5853" stroke="white" stroke-width="1.5" stroke-miterlimit="10" stroke-linecap="round" stroke-linejoin="round"/>
<path d="M13.6587 61.5392H27.4199" stroke="white" stroke-width="1.5" stroke-miterlimit="10" stroke-linecap="round" stroke-linejoin="round"/>
</svg>
